<?xml version="1.0" encoding="utf-8"?>
<!-- Generator: Adobe Illustrator 15.0.0, SVG Export Plug-In . SVG Version: 6.00 Build 0)  -->
<!DOCTYPE svg PUBLIC "-//W3C//DTD SVG 1.1//EN" "http://www.w3.org/Graphics/SVG/1.1/DTD/svg11.dtd">
<svg version="1.1" id="Layer_1" xmlns="http://www.w3.org/2000/svg" xmlns:xlink="http://www.w3.org/1999/xlink" x="0px" y="0px"
	 width="183.283px" height="54.993px" viewBox="0 0 183.283 54.993" enable-background="new 0 0 183.283 54.993"
	 xml:space="preserve">
<g>
	<path fill-rule="evenodd" clip-rule="evenodd" fill="#FDE900" d="M109.363,31.196h4.713l3.556-10.976L109.363,31.196z
		 M92.408,43.291l4.172-12.696L119.969,0.95h18.222l-10.27,30.029h3.745l-4.281,12.264h-3.657l-3.487,10.196h-13.598l2.992-10.063
		L92.408,43.291z"/>
	<path fill-rule="evenodd" clip-rule="evenodd" fill="#FDE900" d="M132.723,50.759c11.124,5.335,20.521,4.91,28.735,0.546
		c8.002-4.789,12.367-12.245,13.095-22.37c-0.182-7.153-4.729-10.427-13.64-9.821l2.182-4.91h15.823l4.365-13.277h-27.099
		L141.178,32.12c7.971-1.848,12.997-2.163,14.643-0.821c2.548,2.228,1.988,5.798-2.183,8.912c-3.58,1.715-9.237,1.051-14.368-3.093
		L132.723,50.759z"/>
	<path fill-rule="evenodd" clip-rule="evenodd" fill="#FDE900" d="M57.428,16.931H71.07c0.64-2.147,1.575-3.445,2.909-4.341
		c1.423-0.719,2.374-0.38,2.32,1.102c-0.315,3.176-1.625,5.625-4.32,6.877c-1.203,0.45-3.883,0.854-5.923,0.24L62.338,32.39
		l3.274-0.182c2.895,0.1,4.046,1.555,3.456,4.365c-0.813,3.139-2.208,5.018-4.183,5.638c-2.333,0.292-1.906-2.408-0.545-5.819
		H50.153c-10.365,27.056,36.951,23.683,35.101-4.184c-0.269-2.581-1.603-4.582-4.001-6.002c4.82-2.454,8.578-5.971,10.002-11.821
		c1.482-8.589-2.283-12.493-8.366-14.004C72.795-1.136,66.369,2.018,61.611,7.292C59.525,10.506,58.349,13.719,57.428,16.931"/>
	<path fill-rule="evenodd" clip-rule="evenodd" fill="#FDE900" d="M36.085,20.486c-0.006-0.671-0.217-1.322-0.626-1.955
		c-0.875-1.327-2.068-1.979-3.595-1.953c-1.149,0.02-2.138,0.46-2.969,1.315c-0.824,0.862-1.226,1.864-1.2,3.014
		c0.025,1.144,0.453,2.107,1.29,2.898c0.836,0.793,1.82,1.182,2.957,1.163c1.149-0.02,2.125-0.479,2.943-1.366
		C35.696,22.708,36.098,21.674,36.085,20.486 M43.824,20.831c0,0.058-0.013,0.313-0.039,0.766c-0.153,2.835-1.104,5.703-2.841,8.608
		c-0.582,0.971-1.462,2.369-2.638,4.188c-0.836,1.296-2.554,3.365-5.147,6.226c-0.849,0.927-1.469,1.603-1.864,2.018l-8.238-2.841
		c0.185-0.115,0.894-0.716,2.133-1.801c0.963-0.85,1.992-1.82,3.077-2.906c1.36-1.359,2.605-2.79,3.749-4.297
		c-0.69,0.23-1.507,0.333-2.452,0.313c-1.833-0.052-3.48-0.563-4.948-1.526c-1.424-0.945-2.529-2.19-3.302-3.735
		c-0.811-1.616-1.226-3.296-1.251-5.052c-0.032-2.4,0.542-4.495,1.73-6.295c1.104-1.674,2.567-2.977,4.394-3.902
		c1.775-0.888,3.691-1.334,5.754-1.334c3.403,0,6.212,1.041,8.447,3.122C42.681,14.521,43.824,17.338,43.824,20.831z M15.702,40.76
		l-8.008,0.69V19.796l-4.858,2.498L0,17.421l15.702-9.654V40.76z"/>
</g>
</svg>
