<?xml version="1.0" encoding="utf-8"?>
<!-- Generator: Adobe Illustrator 15.0.0, SVG Export Plug-In . SVG Version: 6.00 Build 0)  -->
<!DOCTYPE svg PUBLIC "-//W3C//DTD SVG 1.1//EN" "http://www.w3.org/Graphics/SVG/1.1/DTD/svg11.dtd">
<svg version="1.1" id="Layer_1" xmlns="http://www.w3.org/2000/svg" xmlns:xlink="http://www.w3.org/1999/xlink" x="0px" y="0px"
	 width="645px" height="124px" viewBox="0 0 645 124" enable-background="new 0 0 645 124" xml:space="preserve">
<g>
	<path fill-rule="evenodd" clip-rule="evenodd" fill="#FFED00" d="M476.791,26.349h132.145c12.269,0,22.306,11.253,22.306,25.005
		v25.005H488.969l16.372-11.119l-4.021-10.422l-15.69-2.871l-10.476-12.317L476.791,26.349L476.791,26.349z"/>
	<path fill="#3E3D40" d="M168.568,76.877h-7.446l-5.242-43.153l-11.396,37.684c-0.811,2.684-1.608,4.393-2.393,5.127
		s-1.836,1.102-3.153,1.102c-1.57,0-2.76-0.582-3.571-1.746c-0.557-0.811-1.165-2.305-1.823-4.482l-11.396-37.684l-5.242,43.153
		h-7.446l5.85-46.419c0.253-2.127,0.709-3.723,1.368-4.787c1.063-1.823,2.709-2.735,4.938-2.735c1.925,0,3.444,0.785,4.559,2.355
		c0.708,0.962,1.418,2.633,2.127,5.014l10.712,35.177l10.561-35.177c0.912-2.988,1.874-4.963,2.887-5.926
		c1.013-0.962,2.279-1.443,3.798-1.443c2.229,0,3.875,0.886,4.938,2.659c0.608,1.063,1.064,2.685,1.368,4.862L168.568,76.877
		L168.568,76.877z M202.707,39.042c0,4.255-1.14,7.876-3.419,10.865c-2.432,3.19-5.825,5.242-10.181,6.154v20.816h-7.142V56.061
		c-4.407-0.912-7.775-2.9-10.104-5.964c-2.33-3.065-3.495-6.75-3.495-11.055V23.696h7.142v15.423c0,3.19,0.835,5.698,2.507,7.521
		c1.671,1.823,4.179,2.735,7.521,2.735s5.85-0.912,7.521-2.735c1.671-1.824,2.507-4.331,2.507-7.521V23.696h7.142V39.042
		L202.707,39.042z M260.853,61.834c0,4.205-1.267,7.648-3.812,10.334c-3.001,3.141-7.471,4.709-13.41,4.709h-9.522v-6.686h9.155
		c2.748,0,4.825-0.328,6.255-0.986c2.798-1.318,4.191-3.9,4.191-7.75c0-2.685-0.886-4.812-2.671-6.382
		c-1.773-1.57-4.141-2.355-7.091-2.355h-9.839v-6.686h7.18c2.735,0,5.09-0.684,7.053-2.051c1.963-1.368,2.938-3.318,2.938-5.85
		c0-2.33-0.785-4.28-2.355-5.85c-1.773-1.772-4.153-2.659-7.142-2.659c-2.836,0-5.217,0.887-7.142,2.659
		c-2.178,2.026-3.267,4.862-3.267,8.509v36.087h-7.065l0.076-36.239c0-5.268,1.583-9.535,4.749-12.802
		c3.166-3.267,7.179-4.9,12.042-4.9c5.47,0,9.801,1.596,12.992,4.786c2.836,2.837,4.255,6.255,4.255,10.257
		c0,2.786-0.532,5.064-1.596,6.837c-0.811,1.418-2.077,2.608-3.799,3.571c2.482,1.267,4.407,3.077,5.774,5.433
		C260.168,56.175,260.853,58.847,260.853,61.834L260.853,61.834z M300.84,57.125c0,5.167-0.886,9.243-2.659,12.231
		c-1.52,2.533-3.773,4.609-6.762,6.23c-2.533,1.367-5.268,2.051-8.205,2.051s-5.673-0.684-8.205-2.051
		c-3.698-2.025-6.281-4.912-7.75-8.66c-1.064-2.686-1.596-5.951-1.596-9.801V23.696h7.142v33.885c0,3.039,0.431,5.546,1.292,7.521
		c1.671,3.9,4.71,5.85,9.117,5.85c3.444,0,6.052-1.189,7.825-3.57s2.659-5.646,2.659-9.8V23.696h7.142V57.125L300.84,57.125z
		 M338.853,63.127c0,2.734-0.658,5.166-1.975,7.293c-1.621,2.684-3.799,4.508-6.534,5.471c-1.874,0.658-4.432,0.986-7.673,0.986
		h-18.083v-6.686h17.398c2.583,0,4.635-0.328,6.154-0.986c2.381-1.064,3.57-2.863,3.57-5.395c0-1.977-0.646-3.686-1.937-5.128
		c-1.292-1.443-4.495-3.381-9.611-5.813c-3.242-1.519-5.546-2.684-6.914-3.495c-2.532-1.52-4.432-3.14-5.698-4.862
		c-1.722-2.38-2.583-4.964-2.583-7.75c0-2.836,0.684-5.268,2.051-7.293c1.57-2.33,3.773-3.951,6.61-4.862
		c1.925-0.608,4.229-0.912,6.914-0.912h15.955v6.686h-16.411c-1.925,0-3.419,0.14-4.482,0.418c-1.064,0.278-1.976,1.076-2.735,2.393
		c-0.506,0.811-0.76,1.748-0.76,2.811c0,1.57,0.405,2.913,1.216,4.027c0.607,0.861,1.633,1.747,3.077,2.659
		c1.443,0.912,3.609,2.051,6.496,3.418c3.394,1.621,5.773,2.837,7.142,3.647c2.685,1.621,4.686,3.292,6.002,5.014
		C337.916,57.302,338.853,60.088,338.853,63.127L338.853,63.127z M349.743,76.877h-7.142V23.696h7.142V76.877L349.743,76.877z
		 M394.669,69.889c0,2.279-0.228,3.949-0.684,5.014c-0.811,1.824-2.406,2.734-4.786,2.734c-1.52,0-2.812-0.342-3.875-1.025
		s-2.229-2.342-3.495-4.975l-18.613-38.368l-0.152,43.608h-7.142V31.445c0-2.532,0.278-4.381,0.836-5.546
		c0.912-1.976,2.71-2.963,5.395-2.963c1.925,0,3.494,0.684,4.71,2.051c0.912,1.013,2.052,2.938,3.419,5.774l17.095,35.631
		l0.151-42.697h7.142V69.889L394.669,69.889z M432.302,76.877h-5.318c-8.661,0-15.6-2.836-20.816-8.508
		c-4.66-5.064-6.99-11.093-6.99-18.083c0-6.989,2.305-12.992,6.914-18.006c5.217-5.723,12.231-8.585,21.045-8.585h5.166v6.686
		h-4.482c-5.521,0-10.231,1.418-14.131,4.254c-3.9,2.836-6.256,6.635-7.066,11.396h25.68v6.686h-25.68
		c0.507,5.065,2.584,9.243,6.23,12.536s8.23,4.938,13.751,4.938h5.698V76.877L432.302,76.877z M468.644,63.127
		c0,2.734-0.659,5.166-1.976,7.293c-1.621,2.684-3.799,4.508-6.534,5.471c-1.874,0.658-4.432,0.986-7.673,0.986h-18.082v-6.686
		h17.397c2.584,0,4.635-0.328,6.154-0.986c2.381-1.064,3.571-2.863,3.571-5.395c0-1.977-0.646-3.686-1.938-5.128
		c-1.292-1.443-4.495-3.381-9.611-5.813c-3.241-1.519-5.546-2.684-6.913-3.495c-2.533-1.52-4.433-3.14-5.698-4.862
		c-1.723-2.38-2.583-4.964-2.583-7.75c0-2.836,0.684-5.268,2.051-7.293c1.57-2.33,3.773-3.951,6.61-4.862
		c1.925-0.608,4.229-0.912,6.913-0.912h15.955v6.686h-16.41c-1.925,0-3.419,0.14-4.482,0.418c-1.064,0.278-1.976,1.076-2.735,2.393
		c-0.507,0.811-0.76,1.748-0.76,2.811c0,1.57,0.405,2.913,1.216,4.027c0.607,0.861,1.633,1.747,3.076,2.659
		c1.443,0.912,3.609,2.051,6.496,3.418c3.394,1.621,5.774,2.837,7.142,3.647c2.685,1.621,4.686,3.292,6.002,5.014
		C467.706,57.302,468.644,60.088,468.644,63.127L468.644,63.127z M504.225,63.127c0,2.734-0.658,5.166-1.976,7.293
		c-1.62,2.684-3.799,4.508-6.533,5.471c-1.874,0.658-4.432,0.986-7.674,0.986H469.96v-6.686h17.398c2.583,0,4.635-0.328,6.154-0.986
		c2.38-1.064,3.57-2.863,3.57-5.395c0-1.977-0.646-3.686-1.938-5.128c-1.291-1.443-4.495-3.381-9.61-5.813
		c-3.242-1.519-5.546-2.684-6.914-3.495c-2.532-1.52-4.432-3.14-5.698-4.862c-1.722-2.38-2.583-4.964-2.583-7.75
		c0-2.836,0.685-5.268,2.052-7.293c1.57-2.33,3.773-3.951,6.609-4.862c1.925-0.608,4.229-0.912,6.914-0.912h15.954v6.686h-16.41
		c-1.925,0-3.419,0.14-4.482,0.418s-1.976,1.076-2.735,2.393c-0.506,0.811-0.76,1.748-0.76,2.811c0,1.57,0.405,2.913,1.216,4.027
		c0.607,0.861,1.634,1.747,3.077,2.659c1.443,0.912,3.608,2.051,6.496,3.418c3.393,1.621,5.773,2.837,7.142,3.647
		c2.685,1.621,4.685,3.292,6.002,5.014C503.288,57.302,504.225,60.088,504.225,63.127L504.225,63.127z"/>
	<path d="M516.55,53.628c0,2.268,0.7,4.194,2.109,5.77c1.408,1.586,3.108,2.373,5.107,2.373c1.998,0,3.698-0.787,5.106-2.373
		c1.409-1.576,2.109-3.502,2.109-5.77c0-2.259-0.7-4.169-2.101-5.746c-1.394-1.569-3.101-2.357-5.115-2.357
		c-1.999,0-3.699,0.789-5.107,2.357C517.25,49.459,516.55,51.369,516.55,53.628L516.55,53.628z M512.332,53.677
		c0-1.625,0.291-3.162,0.873-4.625c0.591-1.463,1.433-2.78,2.542-3.95c1.086-1.146,2.313-2.015,3.675-2.609
		c1.362-0.593,2.81-0.894,4.345-0.894c1.534,0,2.998,0.301,4.383,0.894c1.377,0.594,2.613,1.463,3.683,2.609
		c1.094,1.138,1.929,2.455,2.503,3.926c0.574,1.479,0.865,3.023,0.865,4.649c0,1.65-0.291,3.219-0.865,4.698
		c-0.574,1.487-1.409,2.805-2.503,3.941c-1.069,1.146-2.306,2.016-3.683,2.609c-1.385,0.594-2.849,0.895-4.383,0.895
		c-1.535,0-2.982-0.301-4.345-0.895c-1.361-0.594-2.589-1.463-3.675-2.609c-1.109-1.154-1.951-2.471-2.542-3.95
		C512.623,56.888,512.332,55.327,512.332,53.677L512.332,53.677z M537.482,65.389V52.645c0-3.397,0.874-6.087,2.629-8.07
		c1.755-1.983,4.084-2.975,7.003-2.975c2.92,0,5.249,0.992,6.988,2.975c1.739,1.983,2.604,4.673,2.604,8.07v12.744h-4.013v-13.5
		c0-1.845-0.52-3.349-1.559-4.503c-1.031-1.162-2.377-1.739-4.021-1.739c-1.621,0-2.967,0.577-4.013,1.739
		c-1.055,1.154-1.582,2.658-1.582,4.503v13.5H537.482L537.482,65.389z M560.438,65.389V31.294h4.061v34.095H560.438L560.438,65.389z
		 M568.504,65.389V42.03h4.061v23.358H568.504L568.504,65.389z M568.063,35.39c0-0.699,0.236-1.3,0.716-1.788
		c0.472-0.496,1.063-0.739,1.747-0.739c0.692,0,1.274,0.244,1.747,0.723c0.464,0.488,0.7,1.089,0.7,1.804
		c0,0.724-0.236,1.341-0.7,1.845c-0.473,0.496-1.055,0.748-1.747,0.748c-0.669,0-1.251-0.252-1.739-0.764
		C568.308,36.715,568.063,36.105,568.063,35.39L568.063,35.39z M576.224,65.389V52.645c0-3.397,0.874-6.087,2.629-8.07
		c1.754-1.983,4.084-2.975,7.004-2.975c2.919,0,5.248,0.992,6.987,2.975c1.739,1.983,2.604,4.673,2.604,8.07v12.744h-4.013v-13.5
		c0-1.845-0.52-3.349-1.559-4.503c-1.03-1.162-2.377-1.739-4.021-1.739c-1.622,0-2.968,0.577-4.014,1.739
		c-1.055,1.154-1.582,2.658-1.582,4.503v13.5H576.224L576.224,65.389z M620.615,55.059c-0.567,3.332-1.873,5.966-3.919,7.908
		c-2.046,1.936-4.533,2.902-7.468,2.902c-1,0-1.983-0.139-2.959-0.416c-0.976-0.275-1.896-0.689-2.763-1.227
		c-1.81-1.146-3.219-2.641-4.218-4.479c-0.999-1.844-1.495-3.868-1.495-6.071c0-1.625,0.291-3.162,0.865-4.625
		s1.409-2.78,2.503-3.95c1.086-1.162,2.329-2.04,3.723-2.649c1.385-0.602,2.849-0.902,4.391-0.902c2.282,0,4.336,0.625,6.138,1.869
		c1.803,1.243,3.267,3.064,4.392,5.445l-14.818,8.477l-1.707-3.162l10.993-6.348c-0.677-0.772-1.439-1.365-2.282-1.764
		c-0.842-0.398-1.763-0.593-2.762-0.593c-2.03,0-3.738,0.78-5.131,2.349c-1.394,1.561-2.086,3.495-2.086,5.795
		c0,2.292,0.7,4.218,2.102,5.795c1.393,1.568,3.101,2.355,5.115,2.355c1.92,0,3.525-0.658,4.823-1.967
		c1.299-1.308,2.109-3.104,2.432-5.388L620.615,55.059L620.615,55.059z"/>
	<path d="M117.72,105.367h-8.208V91.203h1.883v12.488h6.325V105.367L117.72,105.367z M133.775,105.613
		c-1.691,0-3.006-0.477-3.942-1.432c-0.935-0.955-1.402-2.309-1.402-4.064c0-1.732,0.455-3.111,1.36-4.135s2.091-1.535,3.559-1.535
		c0.659,0,1.24,0.094,1.75,0.285c0.506,0.189,0.951,0.486,1.331,0.893c0.38,0.406,0.672,0.902,0.874,1.49
		c0.205,0.586,0.305,1.307,0.305,2.154v0.971h-7.361c0,1.236,0.312,2.182,0.932,2.834c0.621,0.652,1.48,0.98,2.578,0.98
		c0.393,0,0.776-0.045,1.153-0.133s0.718-0.205,1.023-0.344c0.325-0.146,0.597-0.287,0.818-0.422
		c0.221-0.137,0.406-0.268,0.552-0.387h0.104v1.951c-0.208,0.08-0.468,0.186-0.779,0.309c-0.312,0.123-0.591,0.221-0.838,0.289
		c-0.347,0.094-0.662,0.168-0.945,0.221C134.564,105.588,134.207,105.613,133.775,105.613L133.775,105.613z M135.87,98.869
		c-0.013-0.48-0.068-0.896-0.172-1.246c-0.101-0.348-0.247-0.645-0.435-0.883c-0.211-0.268-0.478-0.473-0.806-0.611
		c-0.328-0.141-0.73-0.207-1.211-0.207c-0.478,0-0.88,0.07-1.214,0.213c-0.332,0.143-0.637,0.352-0.909,0.623
		c-0.267,0.279-0.468,0.588-0.607,0.926c-0.14,0.342-0.227,0.734-0.266,1.186H135.87L135.87,98.869z M152.733,105.574
		c-0.977,0-1.737-0.275-2.283-0.83c-0.545-0.557-0.818-1.434-0.818-2.631v-5.887h-1.208v-1.484h1.208v-3.053h1.79v3.053h3.289v1.484
		h-3.289v5.049c0,0.539,0.009,0.955,0.029,1.246c0.02,0.293,0.091,0.566,0.218,0.818c0.107,0.221,0.282,0.391,0.523,0.5
		c0.24,0.111,0.568,0.166,0.98,0.166c0.289,0,0.571-0.041,0.844-0.127c0.273-0.088,0.471-0.158,0.591-0.213h0.104v1.604
		c-0.334,0.098-0.675,0.172-1.023,0.225C153.344,105.549,153.026,105.574,152.733,105.574L152.733,105.574z M180.501,105.367h-1.789
		v-1.18c-0.552,0.48-1.075,0.848-1.572,1.098c-0.493,0.25-1.045,0.377-1.652,0.377c-0.464,0-0.899-0.074-1.309-0.227
		c-0.409-0.154-0.767-0.393-1.072-0.725s-0.542-0.744-0.708-1.248c-0.169-0.5-0.253-1.105-0.253-1.824v-6.896h1.789v6.049
		c0,0.566,0.02,1.033,0.062,1.406c0.042,0.371,0.136,0.695,0.279,0.975c0.146,0.273,0.344,0.471,0.598,0.598
		c0.25,0.127,0.61,0.191,1.078,0.191c0.438,0,0.906-0.123,1.399-0.371c0.494-0.25,0.948-0.551,1.36-0.914v-7.934h1.789V105.367
		L180.501,105.367z M196.06,105.623c-0.711,0-1.374-0.094-1.994-0.285c-0.617-0.191-1.13-0.393-1.536-0.611v-2.006h0.094
		c0.153,0.119,0.331,0.252,0.539,0.398c0.204,0.146,0.48,0.299,0.821,0.459c0.305,0.139,0.64,0.262,1.003,0.369
		c0.367,0.107,0.744,0.162,1.14,0.162c0.286,0,0.588-0.031,0.913-0.1c0.325-0.064,0.565-0.15,0.724-0.254
		c0.221-0.143,0.38-0.299,0.481-0.465c0.097-0.164,0.146-0.412,0.146-0.742c0-0.426-0.117-0.748-0.348-0.961
		c-0.23-0.219-0.639-0.396-1.23-0.543c-0.227-0.059-0.526-0.123-0.893-0.197c-0.371-0.076-0.708-0.16-1.02-0.248
		c-0.812-0.232-1.402-0.598-1.77-1.088c-0.367-0.492-0.552-1.088-0.552-1.785c0-0.957,0.36-1.738,1.084-2.342
		c0.724-0.6,1.685-0.902,2.883-0.902c0.591,0,1.182,0.072,1.779,0.217c0.598,0.146,1.098,0.332,1.503,0.553v1.912h-0.094
		c-0.458-0.359-0.967-0.645-1.529-0.854c-0.559-0.211-1.127-0.314-1.698-0.314c-0.587,0-1.084,0.123-1.49,0.369
		c-0.406,0.248-0.61,0.625-0.61,1.125c0,0.443,0.12,0.775,0.36,0.992c0.24,0.219,0.626,0.4,1.159,0.539
		c0.266,0.068,0.565,0.137,0.89,0.205c0.328,0.064,0.672,0.143,1.032,0.23c0.79,0.197,1.38,0.525,1.776,0.98
		c0.396,0.459,0.594,1.078,0.594,1.863c0,0.459-0.091,0.891-0.273,1.299c-0.178,0.41-0.444,0.76-0.792,1.053
		c-0.38,0.318-0.812,0.559-1.289,0.725C197.385,105.543,196.784,105.623,196.06,105.623L196.06,105.623z M221.288,105.574
		c-0.977,0-1.737-0.275-2.283-0.83c-0.545-0.557-0.818-1.434-0.818-2.631v-5.887h-1.208v-1.484h1.208v-3.053h1.79v3.053h3.289v1.484
		h-3.289v5.049c0,0.539,0.009,0.955,0.029,1.246c0.02,0.293,0.091,0.566,0.217,0.818c0.107,0.221,0.283,0.391,0.523,0.5
		c0.24,0.111,0.568,0.166,0.98,0.166c0.289,0,0.571-0.041,0.844-0.127c0.273-0.088,0.471-0.158,0.591-0.213h0.104v1.604
		c-0.334,0.098-0.675,0.172-1.023,0.225C221.898,105.549,221.581,105.574,221.288,105.574L221.288,105.574z M240.623,102.75v-2.951
		c-0.425,0.037-0.961,0.09-1.61,0.154c-0.653,0.068-1.175,0.164-1.575,0.283c-0.478,0.146-0.871,0.369-1.179,0.672
		c-0.312,0.299-0.468,0.721-0.468,1.26c0,0.611,0.172,1.072,0.513,1.381c0.344,0.311,0.844,0.467,1.503,0.467
		c0.565,0,1.075-0.123,1.533-0.367C239.795,103.406,240.224,103.107,240.623,102.75L240.623,102.75z M240.623,104.236
		c-0.146,0.107-0.341,0.258-0.584,0.451c-0.244,0.191-0.481,0.348-0.708,0.461c-0.318,0.166-0.623,0.293-0.918,0.381
		c-0.296,0.088-0.708,0.133-1.24,0.133c-0.438,0-0.854-0.082-1.247-0.246c-0.393-0.166-0.737-0.396-1.036-0.695
		c-0.286-0.293-0.513-0.652-0.685-1.082c-0.172-0.428-0.256-0.879-0.256-1.354c0-0.736,0.156-1.363,0.468-1.881
		c0.308-0.52,0.802-0.928,1.471-1.232c0.598-0.273,1.302-0.461,2.114-0.566c0.812-0.104,1.686-0.182,2.624-0.232v-0.342
		c0-0.418-0.065-0.756-0.191-1.016c-0.126-0.258-0.302-0.455-0.533-0.594c-0.227-0.146-0.506-0.24-0.834-0.289
		c-0.331-0.049-0.669-0.072-1.016-0.072c-0.413,0-0.899,0.063-1.455,0.186c-0.559,0.123-1.117,0.305-1.676,0.539h-0.104v-1.818
		c0.331-0.094,0.802-0.199,1.416-0.313c0.617-0.113,1.224-0.172,1.828-0.172c0.727,0,1.344,0.059,1.844,0.172
		s0.952,0.318,1.351,0.617c0.386,0.293,0.675,0.67,0.864,1.133c0.191,0.461,0.286,1.027,0.286,1.691v7.271h-1.78V104.236
		L240.623,104.236z M263.822,105.367h-2.351l-3.958-5.127l-0.711,0.684v4.443h-1.79V90.563h1.79v8.67l4.201-4.49h2.228l-4.357,4.441
		L263.822,105.367L263.822,105.367z M279.257,105.613c-1.692,0-3.007-0.477-3.942-1.432s-1.402-2.309-1.402-4.064
		c0-1.732,0.454-3.111,1.36-4.135c0.906-1.023,2.091-1.535,3.559-1.535c0.659,0,1.241,0.094,1.75,0.285
		c0.507,0.189,0.952,0.486,1.332,0.893s0.672,0.902,0.874,1.49c0.204,0.586,0.305,1.307,0.305,2.154v0.971h-7.361
		c0,1.236,0.312,2.182,0.932,2.834s1.48,0.98,2.578,0.98c0.393,0,0.776-0.045,1.153-0.133c0.376-0.088,0.717-0.205,1.023-0.344
		c0.324-0.146,0.597-0.287,0.818-0.422c0.221-0.137,0.406-0.268,0.552-0.387h0.104v1.951c-0.208,0.08-0.467,0.186-0.779,0.309
		c-0.312,0.123-0.591,0.221-0.837,0.289c-0.348,0.094-0.663,0.168-0.945,0.221C280.046,105.588,279.689,105.613,279.257,105.613
		L279.257,105.613z M281.352,98.869c-0.013-0.48-0.068-0.896-0.172-1.246c-0.101-0.348-0.247-0.645-0.435-0.883
		c-0.211-0.268-0.477-0.473-0.805-0.611c-0.328-0.141-0.73-0.207-1.211-0.207c-0.477,0-0.88,0.07-1.214,0.213
		c-0.331,0.143-0.636,0.352-0.909,0.623c-0.266,0.279-0.468,0.588-0.607,0.926c-0.14,0.342-0.228,0.734-0.267,1.186H281.352
		L281.352,98.869z M309.438,94.742l-5.715,14.543h-1.913l1.903-4.432l-3.861-10.111h1.932l2.903,7.867l2.887-7.867H309.438
		L309.438,94.742z M329.48,100.057c0,1.791-0.432,3.174-1.292,4.145c-0.864,0.975-2.014,1.461-3.445,1.461
		c-1.478,0-2.64-0.504-3.487-1.506c-0.848-1.008-1.27-2.371-1.27-4.1c0-1.771,0.435-3.152,1.309-4.135
		c0.87-0.984,2.02-1.475,3.448-1.475c1.432,0,2.581,0.49,3.445,1.471C329.049,96.895,329.48,98.277,329.48,100.057L329.48,100.057z
		 M327.636,100.057c0-1.373-0.249-2.395-0.753-3.064c-0.5-0.668-1.215-1.004-2.14-1.004c-0.932,0-1.653,0.336-2.156,1.004
		c-0.503,0.67-0.757,1.691-0.757,3.064c0,1.332,0.254,2.342,0.757,3.031c0.503,0.688,1.225,1.031,2.156,1.031
		c0.919,0,1.633-0.338,2.137-1.012C327.383,102.432,327.636,101.414,327.636,100.057L327.636,100.057z M349.695,105.367h-1.789
		v-1.18c-0.552,0.48-1.074,0.848-1.571,1.098c-0.494,0.25-1.046,0.377-1.653,0.377c-0.464,0-0.899-0.074-1.309-0.227
		c-0.409-0.154-0.766-0.393-1.071-0.725c-0.305-0.332-0.542-0.744-0.708-1.248c-0.169-0.5-0.253-1.105-0.253-1.824v-6.896h1.789
		v6.049c0,0.566,0.02,1.033,0.062,1.406c0.042,0.371,0.137,0.695,0.279,0.975c0.146,0.273,0.345,0.471,0.598,0.598
		c0.25,0.127,0.61,0.191,1.078,0.191c0.438,0,0.906-0.123,1.399-0.371c0.493-0.25,0.948-0.551,1.36-0.914v-7.934h1.789V105.367
		L349.695,105.367z M377.213,100.057c0,1.791-0.432,3.174-1.292,4.145c-0.864,0.975-2.014,1.461-3.445,1.461
		c-1.478,0-2.64-0.504-3.487-1.506c-0.848-1.008-1.27-2.371-1.27-4.1c0-1.771,0.435-3.152,1.309-4.135
		c0.87-0.984,2.02-1.475,3.448-1.475c1.432,0,2.581,0.49,3.445,1.471C376.781,96.895,377.213,98.277,377.213,100.057
		L377.213,100.057z M375.369,100.057c0-1.373-0.25-2.395-0.754-3.064c-0.5-0.668-1.214-1.004-2.14-1.004
		c-0.932,0-1.652,0.336-2.156,1.004c-0.503,0.67-0.757,1.691-0.757,3.064c0,1.332,0.254,2.342,0.757,3.031
		c0.504,0.688,1.225,1.031,2.156,1.031c0.919,0,1.633-0.338,2.137-1.012C375.115,102.432,375.369,101.414,375.369,100.057
		L375.369,100.057z M397.503,105.367h-1.789v-6.049c0-0.492-0.022-0.945-0.071-1.367c-0.049-0.424-0.137-0.76-0.27-1.014
		c-0.146-0.266-0.351-0.465-0.611-0.594c-0.26-0.131-0.616-0.195-1.064-0.195c-0.445,0-0.902,0.119-1.377,0.357
		c-0.471,0.236-0.932,0.545-1.383,0.928v7.934h-1.789V94.742h1.789v1.18c0.532-0.475,1.059-0.842,1.578-1.096
		c0.522-0.252,1.071-0.379,1.646-0.379c1.049,0,1.867,0.344,2.455,1.031c0.591,0.689,0.887,1.686,0.887,2.992V105.367
		L397.503,105.367z M411.941,105.367h-1.789V90.563h1.789V105.367L411.941,105.367z M426.513,105.367h-1.789V94.742h1.789V105.367
		L426.513,105.367z M426.636,92.959h-2.035v-1.854h2.035V92.959L426.636,92.959z M447.592,105.367h-1.789v-6.049
		c0-0.492-0.022-0.945-0.071-1.367c-0.049-0.424-0.137-0.76-0.27-1.014c-0.146-0.266-0.351-0.465-0.61-0.594
		c-0.26-0.131-0.617-0.195-1.065-0.195c-0.444,0-0.902,0.119-1.377,0.357c-0.471,0.236-0.932,0.545-1.383,0.928v7.934h-1.789V94.742
		h1.789v1.18c0.532-0.475,1.059-0.842,1.578-1.096c0.522-0.252,1.071-0.379,1.646-0.379c1.049,0,1.867,0.344,2.455,1.031
		c0.591,0.689,0.887,1.686,0.887,2.992V105.367L447.592,105.367z M464.816,105.613c-1.692,0-3.007-0.477-3.942-1.432
		c-0.935-0.955-1.402-2.309-1.402-4.064c0-1.732,0.454-3.111,1.36-4.135s2.091-1.535,3.559-1.535c0.659,0,1.24,0.094,1.75,0.285
		c0.507,0.189,0.952,0.486,1.331,0.893c0.381,0.406,0.673,0.902,0.874,1.49c0.204,0.586,0.306,1.307,0.306,2.154v0.971h-7.361
		c0,1.236,0.312,2.182,0.932,2.834s1.48,0.98,2.578,0.98c0.393,0,0.776-0.045,1.153-0.133c0.376-0.088,0.717-0.205,1.022-0.344
		c0.324-0.146,0.598-0.287,0.818-0.422c0.221-0.137,0.405-0.268,0.552-0.387h0.104v1.951c-0.207,0.08-0.467,0.186-0.779,0.309
		c-0.312,0.123-0.591,0.221-0.837,0.289c-0.348,0.094-0.663,0.168-0.945,0.221C465.605,105.588,465.248,105.613,464.816,105.613
		L464.816,105.613z M466.911,98.869c-0.014-0.48-0.068-0.896-0.173-1.246c-0.101-0.348-0.247-0.645-0.435-0.883
		c-0.212-0.268-0.478-0.473-0.806-0.611c-0.328-0.141-0.73-0.207-1.211-0.207c-0.478,0-0.88,0.07-1.215,0.213
		c-0.331,0.143-0.636,0.352-0.909,0.623c-0.266,0.279-0.468,0.588-0.606,0.926c-0.14,0.342-0.228,0.734-0.267,1.186H466.911
		L466.911,98.869z M499.097,105.367h-2.435l-1.942-2.027c-0.646,0.826-1.308,1.42-1.99,1.779c-0.682,0.361-1.454,0.543-2.318,0.543
		c-1.279,0-2.338-0.387-3.172-1.156c-0.835-0.77-1.25-1.779-1.25-3.029c0-0.545,0.074-1.033,0.227-1.455
		c0.153-0.424,0.357-0.809,0.61-1.152c0.247-0.328,0.533-0.619,0.857-0.869c0.322-0.25,0.634-0.469,0.933-0.654
		c-0.64-0.428-1.121-0.883-1.438-1.359c-0.315-0.475-0.475-1.076-0.475-1.797c0-0.451,0.091-0.865,0.27-1.252
		c0.182-0.383,0.419-0.721,0.711-1.014c0.303-0.295,0.698-0.543,1.183-0.73c0.486-0.191,1.016-0.285,1.594-0.285
		c1.053,0,1.909,0.275,2.575,0.83c0.665,0.557,1,1.26,1,2.107c0,0.313-0.039,0.633-0.12,0.969c-0.078,0.33-0.221,0.652-0.432,0.963
		c-0.208,0.313-0.484,0.605-0.821,0.875c-0.342,0.271-0.793,0.512-1.354,0.713l3.348,3.445c0.088-0.52,0.143-1.088,0.162-1.697
		c0.02-0.613,0.029-1.41,0.029-2.393h1.854v0.912c0,0.609-0.078,1.295-0.234,2.059c-0.155,0.766-0.408,1.49-0.766,2.176
		L499.097,105.367L499.097,105.367z M493.896,102.502l-4.377-4.48c-0.159,0.104-0.318,0.225-0.475,0.363
		c-0.158,0.141-0.334,0.348-0.522,0.627c-0.152,0.221-0.289,0.514-0.405,0.871c-0.117,0.357-0.176,0.736-0.176,1.137
		c0,0.898,0.27,1.639,0.805,2.221c0.536,0.58,1.261,0.869,2.173,0.869c0.607,0,1.156-0.129,1.646-0.385
		C493.051,103.467,493.496,103.061,493.896,102.502L493.896,102.502z M490.411,96.691c0.357-0.121,0.649-0.283,0.88-0.484
		c0.23-0.205,0.413-0.426,0.539-0.666c0.114-0.225,0.198-0.457,0.257-0.705c0.055-0.246,0.084-0.512,0.084-0.799
		c0-0.617-0.178-1.09-0.535-1.428c-0.36-0.334-0.776-0.504-1.254-0.504c-0.562,0-1.006,0.191-1.331,0.572
		c-0.321,0.379-0.483,0.854-0.483,1.426c0,0.252,0.022,0.471,0.071,0.652s0.146,0.393,0.299,0.633
		c0.133,0.195,0.318,0.406,0.559,0.627C489.733,96.238,490.038,96.463,490.411,96.691L490.411,96.691z M528.024,105.367v-6.146
		c0-0.488-0.02-0.939-0.059-1.355c-0.036-0.414-0.117-0.74-0.237-0.973c-0.126-0.258-0.305-0.441-0.542-0.563
		c-0.234-0.121-0.552-0.182-0.951-0.182c-0.367,0-0.76,0.113-1.183,0.338c-0.422,0.227-0.857,0.551-1.309,0.977
		c0.007,0.107,0.017,0.234,0.026,0.383c0.01,0.15,0.013,0.326,0.013,0.529v6.992h-1.789v-6.146c0-0.488-0.02-0.939-0.059-1.355
		c-0.035-0.414-0.116-0.74-0.236-0.973c-0.127-0.258-0.306-0.441-0.543-0.563c-0.233-0.121-0.552-0.182-0.951-0.182
		c-0.387,0-0.792,0.119-1.214,0.359c-0.426,0.244-0.838,0.553-1.237,0.926v7.934h-1.789V94.742h1.789v1.18
		c0.471-0.469,0.935-0.832,1.393-1.088c0.461-0.258,0.965-0.387,1.517-0.387c0.63,0,1.186,0.143,1.669,0.428
		c0.487,0.285,0.854,0.754,1.11,1.406c0.539-0.602,1.065-1.059,1.578-1.367c0.513-0.311,1.071-0.467,1.672-0.467
		c0.458,0,0.874,0.07,1.247,0.213c0.374,0.145,0.701,0.375,0.98,0.689c0.286,0.324,0.504,0.727,0.659,1.207
		c0.156,0.484,0.234,1.088,0.234,1.818v6.992H528.024L528.024,105.367z M551.168,100.057c0,1.791-0.432,3.174-1.292,4.145
		c-0.864,0.975-2.014,1.461-3.445,1.461c-1.478,0-2.64-0.504-3.487-1.506c-0.848-1.008-1.27-2.371-1.27-4.1
		c0-1.771,0.435-3.152,1.309-4.135c0.87-0.984,2.02-1.475,3.448-1.475c1.432,0,2.581,0.49,3.445,1.471
		C550.736,96.895,551.168,98.277,551.168,100.057L551.168,100.057z M549.323,100.057c0-1.373-0.25-2.395-0.753-3.064
		c-0.5-0.668-1.215-1.004-2.14-1.004c-0.932,0-1.652,0.336-2.156,1.004c-0.503,0.67-0.757,1.691-0.757,3.064
		c0,1.332,0.254,2.342,0.757,3.031c0.504,0.688,1.225,1.031,2.156,1.031c0.919,0,1.633-0.338,2.137-1.012
		C549.07,102.432,549.323,101.414,549.323,100.057L549.323,100.057z M570.172,100.021c0-1.27-0.195-2.234-0.581-2.889
		c-0.387-0.656-1.007-0.984-1.864-0.984c-0.487,0-0.98,0.113-1.48,0.344c-0.497,0.229-0.948,0.516-1.354,0.863v6.09
		c0.452,0.223,0.852,0.379,1.198,0.471c0.352,0.094,0.734,0.139,1.153,0.139c0.912,0,1.63-0.324,2.149-0.971
		S570.172,101.414,570.172,100.021L570.172,100.021z M572.017,99.879c0,1.738-0.423,3.137-1.267,4.195
		c-0.842,1.059-1.896,1.588-3.166,1.588c-0.578,0-1.071-0.072-1.48-0.215c-0.406-0.143-0.812-0.334-1.212-0.574l-0.113,0.494h-1.676
		V90.563h1.789v5.293c0.452-0.406,0.938-0.742,1.465-1.01c0.525-0.266,1.123-0.398,1.789-0.398c1.198,0,2.144,0.48,2.835,1.441
		S572.017,98.178,572.017,99.879L572.017,99.879z M585.799,105.367h-1.79V94.742h1.79V105.367L585.799,105.367z M585.922,92.959
		h-2.036v-1.854h2.036V92.959L585.922,92.959z M600.37,105.367h-1.789V90.563h1.789V105.367L600.37,105.367z M617.708,105.613
		c-1.691,0-3.006-0.477-3.941-1.432s-1.402-2.309-1.402-4.064c0-1.732,0.454-3.111,1.36-4.135c0.905-1.023,2.091-1.535,3.559-1.535
		c0.659,0,1.24,0.094,1.75,0.285c0.507,0.189,0.951,0.486,1.331,0.893c0.381,0.406,0.673,0.902,0.874,1.49
		c0.204,0.586,0.305,1.307,0.305,2.154v0.971h-7.36c0,1.236,0.312,2.182,0.932,2.834s1.48,0.98,2.578,0.98
		c0.393,0,0.776-0.045,1.152-0.133c0.377-0.088,0.718-0.205,1.023-0.344c0.324-0.146,0.597-0.287,0.817-0.422
		c0.221-0.137,0.406-0.268,0.553-0.387h0.104v1.951c-0.208,0.08-0.468,0.186-0.779,0.309s-0.591,0.221-0.838,0.289
		c-0.348,0.094-0.662,0.168-0.944,0.221C618.497,105.588,618.141,105.613,617.708,105.613L617.708,105.613z M619.803,98.869
		c-0.013-0.48-0.068-0.896-0.172-1.246c-0.101-0.348-0.247-0.645-0.436-0.883c-0.211-0.268-0.477-0.473-0.805-0.611
		c-0.328-0.141-0.73-0.207-1.212-0.207c-0.477,0-0.88,0.07-1.214,0.213c-0.331,0.143-0.637,0.352-0.909,0.623
		c-0.267,0.279-0.468,0.588-0.607,0.926c-0.14,0.342-0.227,0.734-0.266,1.186H619.803L619.803,98.869z"/>
	<path fill-rule="evenodd" clip-rule="evenodd" fill="#FFED00" d="M55.771,11c24.727,0,44.771,20.045,44.771,44.771
		s-20.044,44.771-44.771,44.771S11,80.498,11,55.771S31.045,11,55.771,11L55.771,11z"/>
	<path fill-rule="evenodd" clip-rule="evenodd" fill="#3E3D40" d="M48.221,50.295l-8.026,8.531
		c-2.649,2.816-7.877,2.746-10.423,0.75l8.835-12.3c-2.408-1.333-3.529-2.984-4.244-5.656c-0.604-2.255,0.057-4.184,0.359-6.354
		c0.344-2.475,0.563-6.917-0.375-9.408c-0.113-0.3-0.256-0.591-0.384-0.886h20.234L80.98,83.666
		c-3.599,2.061-7.921-0.148-9.493-2.551L51.625,50.752C50.804,49.496,49.37,49.074,48.221,50.295L48.221,50.295z"/>
	<path fill-rule="evenodd" clip-rule="evenodd" fill="#3E3D40" d="M49.906,51.56l6.328,9.391L39.12,84.92
		c-2.937-1.607-4.549-6.135-2.72-9.383L49.906,51.56L49.906,51.56z"/>
</g>
</svg>
