<?xml version="1.0" encoding="utf-8"?>
<!-- Generator: Adobe Illustrator 15.0.0, SVG Export Plug-In . SVG Version: 6.00 Build 0)  -->
<!DOCTYPE svg PUBLIC "-//W3C//DTD SVG 1.1//EN" "http://www.w3.org/Graphics/SVG/1.1/DTD/svg11.dtd">
<svg version="1.1" id="Layer_1" xmlns="http://www.w3.org/2000/svg" xmlns:xlink="http://www.w3.org/1999/xlink" x="0px" y="0px"
	 width="80px" height="80px" viewBox="35 35 80 80" enable-background="new 35 35 80 80" xml:space="preserve">
<polygon fill="#1A171B" points="98.475,109.634 98.475,106.233 97.265,106.233 97.265,105.543 100.519,105.543 100.519,106.233 
	99.308,106.233 99.308,109.634 "/>
<polygon fill="#1A171B" points="101.035,109.634 101.035,105.543 102.272,105.543 102.992,108.338 103.737,105.543 104.976,105.543 
	104.976,109.634 104.199,109.634 104.199,106.409 103.394,109.634 102.588,109.634 101.782,106.409 101.782,109.634 "/>
<path fill="#272423" d="M75,39.186c19.733,0,35.757,16.048,35.757,35.815c0,19.766-16.022,35.814-35.758,35.814
	c-19.734,0-35.756-16.048-35.756-35.814C39.242,55.234,55.265,39.186,75,39.186L75,39.186z"/>
<path fill="#FDE900" d="M75.015,41.116c18.671,0,33.831,15.186,33.831,33.883c0,18.731-15.16,33.885-33.831,33.885
	c-18.7,0-33.86-15.154-33.86-33.885C41.154,56.302,56.314,41.116,75.015,41.116L75.015,41.116z"/>
<path fill="#1A171B" d="M69.477,71.457l-6.186,6.51c-2.041,2.137-6.097,2.076-8.054,0.551l6.818-9.336
	c-1.872-1.038-2.735-2.277-3.282-4.324c-0.458-1.697,0.061-3.167,0.29-4.81c0.258-1.901,0.43-5.272-0.29-7.176
	c-0.085-0.229-0.2-0.433-0.314-0.659H74.08l20.683,44.629c-2.789,1.555-6.128-0.113-7.336-1.932L72.092,71.801
	C71.459,70.853,70.368,70.534,69.477,71.457L69.477,71.457z"/>
<path fill="#1A171B" d="M70.772,72.434l4.89,7.147L62.457,97.79c-2.272-1.209-3.508-4.667-2.098-7.114L70.772,72.434z"/>
</svg>
