<?xml version="1.0" encoding="utf-8"?>
<!-- Generator: Adobe Illustrator 15.0.0, SVG Export Plug-In . SVG Version: 6.00 Build 0)  -->
<!DOCTYPE svg PUBLIC "-//W3C//DTD SVG 1.1//EN" "http://www.w3.org/Graphics/SVG/1.1/DTD/svg11.dtd">
<svg version="1.1" id="Layer_1" xmlns="http://www.w3.org/2000/svg" xmlns:xlink="http://www.w3.org/1999/xlink" x="0px" y="0px"
	 width="23.429px" height="31.239px" viewBox="147.091 129.292 23.429 31.239"
	 enable-background="new 147.091 129.292 23.429 31.239" xml:space="preserve">
<path fill="#262626" d="M158.806,129.292c-6.471,0-11.715,5.246-11.715,11.714c0,6.471,9.763,19.525,11.715,19.525
	c1.951,0,11.714-13.057,11.714-19.525C170.52,134.538,165.275,129.292,158.806,129.292z M158.806,148.818
	c-4.307,0-7.811-3.506-7.811-7.813c0-4.304,3.504-7.809,7.811-7.809s7.811,3.505,7.811,7.809
	C166.615,145.313,163.113,148.818,158.806,148.818z"/>
<polygon display="none" fill="#FFFFFF" points="164.632,149.71 164.632,148.867 164.332,148.867 164.332,148.695 165.139,148.695 
	165.139,148.867 164.839,148.867 164.839,149.71 "/>
<polygon display="none" fill="#FFFFFF" points="165.266,149.71 165.266,148.695 165.574,148.695 165.751,149.389 165.937,148.695 
	166.244,148.695 166.244,149.71 166.05,149.71 166.05,148.91 165.852,149.71 165.652,149.71 165.453,148.91 165.453,149.71 "/>
<path fill="#FFFFFF" d="M158.809,132.238c4.896,0,8.869,3.98,8.869,8.883s-3.976,8.882-8.869,8.882s-8.869-3.979-8.869-8.882
	S153.916,132.238,158.809,132.238L158.809,132.238z"/>
<path fill="#FDE900" d="M158.809,132.717c4.631,0,8.392,3.766,8.392,8.403c0,4.646-3.76,8.403-8.392,8.403
	c-4.638,0-8.397-3.758-8.397-8.403C150.412,136.482,154.171,132.717,158.809,132.717L158.809,132.717z"/>
<path fill="#1A171B" d="M157.439,140.242l-1.534,1.613c-0.506,0.531-1.512,0.516-1.997,0.138l1.691-2.315
	c-0.465-0.258-0.68-0.564-0.814-1.072c-0.113-0.422,0.016-0.785,0.072-1.193c0.063-0.471,0.105-1.307-0.072-1.78
	c-0.021-0.057-0.049-0.106-0.078-0.163h3.875l5.129,11.068c-0.689,0.386-1.519-0.028-1.818-0.479l-3.803-5.732
	C157.932,140.092,157.66,140.012,157.439,140.242L157.439,140.242z"/>
<path fill="#1A171B" d="M157.759,140.484l1.214,1.772l-3.275,4.517c-0.563-0.301-0.87-1.158-0.52-1.766L157.759,140.484z"/>
</svg>
