<svg id="icons" enable-background="new 0 0 64 64" height="512" viewBox="0 0 64 64" width="512" xmlns="http://www.w3.org/2000/svg"><path d="m57 2.502h-7.001-35.998-7.001c-3.859 0-7 3.141-7 7v28c0 3.859 3.141 7 7 7 .553 0 1-.447 1-1v-11h6.001 8.87c.043.006.087.021.131.021.03 0 .058-.018.088-.021h4.842c.022.002.045.011.068.011.016 0 .03-.01.046-.011h21.912c.016.001.03.011.046.011.023 0 .046-.009.068-.011h5.928v11c0 .553.447 1 1 1 3.859 0 7-3.141 7-7v-28c0-3.859-3.141-7-7-7zm-32.02 28 6.022-8.281 1.28 1.761-4.781 6.521zm14.023-12.301 9.019 12.301h-18.04zm-37.003 19.301v-23.11c1.051 1.074 2.443 1.806 4 2.03v25.978c-2.279-.463-4-2.484-4-4.898zm6-22c0-.553-.447-1-1-1-2.757 0-5-2.243-5-5s2.243-5 5-5h6.001v26h-5.001zm30.195.418-4.67 6.368-1.712-2.354c-.204-.297-.547-.464-.896-.434-.449.039-.691.386-.723.434l-7.685 10.568h-7.508v-26h33.998v23.95l-9.188-12.531c-.164-.289-.47-.469-.801-.472-.336-.003-.649.178-.815.471zm23.805 21.582c0 2.414-1.721 4.435-4 4.898v-25.978c1.557-.225 2.949-.956 4-2.03zm-5-23c-.553 0-1 .447-1 1v15h-5.001v-26h6.001c2.757 0 5 2.243 5 5s-2.243 5-5 5z"/><path d="m25.003 11.505c0-1.654-1.346-3-3-3s-3 1.346-3 3 1.346 3 3 3 3-1.346 3-3zm-4 0c0-.552.448-1 1-1s1 .448 1 1-.448 1-1 1-1-.448-1-1z"/><path d="m45 48.498c0-7.168-5.832-13-13-13s-13 5.832-13 13 5.832 13 13 13 13-5.832 13-13zm-24 0c0-6.065 4.935-11 11-11s11 4.935 11 11-4.935 11-11 11-11-4.935-11-11z"/><path d="m30.001 43.498c.256 0 .512-.098.707-.293l1.292-1.292 1.292 1.292c.195.195.451.293.707.293s.512-.098.707-.293c.391-.391.391-1.023 0-1.414l-1.999-1.999c-.391-.391-1.023-.391-1.414 0l-1.999 1.999c-.391.391-.391 1.023 0 1.414.195.195.451.293.707.293z"/><path d="m32.707 57.205 1.999-1.999c.391-.391.391-1.023 0-1.414s-1.023-.391-1.414 0l-1.292 1.292-1.292-1.292c-.391-.391-1.023-.391-1.414 0s-.391 1.023 0 1.414l1.999 1.999c.195.195.451.293.707.293s.512-.098.707-.293z"/><path d="m37.294 51.205c.195.195.451.293.707.293s.512-.098.707-.293l1.999-1.999c.391-.391.391-1.023 0-1.414l-1.999-1.999c-.391-.391-1.023-.391-1.414 0s-.391 1.023 0 1.414l1.292 1.292-1.292 1.292c-.391.391-.391 1.023 0 1.414z"/><path d="m26.706 45.793c-.391-.391-1.023-.391-1.414 0l-1.999 1.999c-.391.391-.391 1.023 0 1.414l1.999 1.999c.195.195.451.293.707.293s.512-.098.707-.293c.391-.391.391-1.023 0-1.414l-1.292-1.292 1.292-1.292c.391-.391.391-1.023 0-1.414z"/></svg>