<?xml version="1.0" encoding="iso-8859-1"?>
<!-- Generator: Adobe Illustrator 15.0.0, SVG Export Plug-In . SVG Version: 6.00 Build 0)  -->
<!DOCTYPE svg PUBLIC "-//W3C//DTD SVG 1.1//EN" "http://www.w3.org/Graphics/SVG/1.1/DTD/svg11.dtd">
<svg version="1.1" id="Layer_1" xmlns="http://www.w3.org/2000/svg" xmlns:xlink="http://www.w3.org/1999/xlink" x="0px" y="0px"
	 width="55.316px" height="42.352px" viewBox="0 0 55.316 42.352" style="enable-background:new 0 0 55.316 42.352;"
	 xml:space="preserve">
<g>
	<g>
		<g>
			<defs>
				<path id="SVGID_1_" d="M4.236,0.313c-3.767,0-3.141,2.717-3.141,2.717l0.041,2.486H25.92l4.996-5.203H4.236z"/>
			</defs>
			<clipPath id="SVGID_2_">
				<use xlink:href="#SVGID_1_"  style="overflow:visible;"/>
			</clipPath>
			<rect x="0.47" y="0.313" style="clip-path:url(#SVGID_2_);fill:#CCCCCC;" width="30.445" height="5.203"/>
		</g>
	</g>
	<g>
		<g>
			<defs>
				<path id="SVGID_3_" d="M4.201,11.906h26.346c0.601,0,1.177-0.262,1.578-0.715l6.178-6.989H51.11v33.944H4.201V11.906z M37.355,0
					c-0.604,0-1.173,0.258-1.574,0.707l-6.18,6.996H2.1C0.941,7.703,0,8.643,0,9.805v30.447c0,1.162,0.941,2.1,2.101,2.1h51.112
					c1.156,0,2.104-0.938,2.104-2.1V2.102C55.316,0.945,54.369,0,53.213,0H37.355z"/>
			</defs>
			<clipPath id="SVGID_4_">
				<use xlink:href="#SVGID_3_"  style="overflow:visible;"/>
			</clipPath>
			<rect x="0" y="0" style="clip-path:url(#SVGID_4_);fill:#FFFFFF;" width="55.316" height="42.352"/>
		</g>
	</g>
	<g>
		<g>
			<path id="SVGID_5_" style="fill:#FFFFFE;" d="M26.712,16.525v6.201h-6.199c-0.855,0-1.552,0.695-1.552,1.551
				c0,0.854,0.695,1.552,1.552,1.552h6.199v6.198c0,0.855,0.695,1.552,1.553,1.552c0.853,0,1.549-0.695,1.549-1.552v-6.198h6.203
				c0.854,0,1.551-0.697,1.551-1.552s-0.697-1.551-1.551-1.551h-6.203v-6.201c0-0.854-0.696-1.551-1.549-1.551
				C27.407,14.975,26.712,15.67,26.712,16.525"/>
		</g>
		<g>
			<defs>
				<path id="SVGID_6_" d="M26.712,16.525v6.201h-6.199c-0.855,0-1.552,0.695-1.552,1.551c0,0.854,0.695,1.552,1.552,1.552h6.199
					v6.198c0,0.855,0.695,1.552,1.553,1.552c0.853,0,1.549-0.695,1.549-1.552v-6.198h6.203c0.854,0,1.551-0.697,1.551-1.552
					s-0.697-1.551-1.551-1.551h-6.203v-6.201c0-0.854-0.696-1.551-1.549-1.551C27.407,14.975,26.712,15.67,26.712,16.525"/>
			</defs>
			<clipPath id="SVGID_7_">
				<use xlink:href="#SVGID_6_"  style="overflow:visible;"/>
			</clipPath>
			<rect x="18.961" y="14.975" style="clip-path:url(#SVGID_7_);fill:#FFFFFF;" width="18.605" height="18.604"/>
		</g>
	</g>
</g>
</svg>
