<?xml version="1.0" encoding="iso-8859-1"?>
<!-- Generator: Adobe Illustrator 15.0.0, SVG Export Plug-In . SVG Version: 6.00 Build 0)  -->
<!DOCTYPE svg PUBLIC "-//W3C//DTD SVG 1.1//EN" "http://www.w3.org/Graphics/SVG/1.1/DTD/svg11.dtd">
<svg version="1.1" id="Layer_1" xmlns="http://www.w3.org/2000/svg" xmlns:xlink="http://www.w3.org/1999/xlink" x="0px" y="0px"
	 width="53.197px" height="38.188px" viewBox="0 0 53.197 38.188" style="enable-background:new 0 0 53.197 38.188;"
	 xml:space="preserve">
<path style="fill:#FFFFFF;" d="M14.465,0h24.826l13.906,15.345H0L14.465,0z M2.057,29.017h6.532v-6.954
	C5.02,22.397,2.168,25.385,2.057,29.017L2.057,29.017z M9.965,29.017h6.544c-0.124-3.632-2.962-6.619-6.544-6.954V29.017z
	 M16.51,30.38H9.965v6.99h6.544L16.51,30.38L16.51,30.38z M8.589,30.38H2.045v6.99h6.544V30.38z M0,16.77h53.197v21.419H0V16.77z
	 M41.051,22.843L41.051,22.843c3.979,0,7.239,3.261,7.239,7.24v8.104H33.826v-8.104C33.826,26.104,37.085,22.843,41.051,22.843
	L41.051,22.843z"/>
</svg>
