<?xml version="1.0" encoding="utf-8"?>
<!-- Generator: Adobe Illustrator 15.0.0, SVG Export Plug-In . SVG Version: 6.00 Build 0)  -->
<!DOCTYPE svg PUBLIC "-//W3C//DTD SVG 1.1//EN" "http://www.w3.org/Graphics/SVG/1.1/DTD/svg11.dtd">
<svg version="1.1" id="Layer_1" xmlns="http://www.w3.org/2000/svg" xmlns:xlink="http://www.w3.org/1999/xlink" x="0px" y="0px"
	 width="44.662px" height="56.998px" viewBox="0 0 44.662 56.998" enable-background="new 0 0 44.662 56.998" xml:space="preserve">
<g>
	<g>
		<path fill="#FFFFFF" d="M39.739,24.685H4.922C1.749,24.685,0,26.433,0,29.604v22.473c0,3.172,1.749,4.921,4.922,4.921h34.817
			c3.172,0,4.923-1.749,4.923-4.921V29.604C44.662,26.433,42.911,24.685,39.739,24.685z M26.788,50.244h-8.912l1.432-8.67
			c-1.478-0.982-2.455-2.657-2.455-4.566c0-3.026,2.454-5.479,5.48-5.479c3.025,0,5.479,2.453,5.479,5.479
			c0,1.909-0.977,3.587-2.455,4.566L26.788,50.244z"/>
		<path fill="#BCBEC0" d="M6.672,15.659C6.672,7.011,13.683,0,22.331,0c8.646,0,15.656,7.011,15.656,15.659v9.022H32.71v-9.022
			c0-5.732-4.646-10.38-10.379-10.38c-5.732,0-10.381,4.647-10.381,10.38v9.022H6.672V15.659z"/>
	</g>
</g>
</svg>
