<?xml version="1.0" standalone="no"?>
<!DOCTYPE svg PUBLIC "-//W3C//DTD SVG 20010904//EN"
 "http://www.w3.org/TR/2001/REC-SVG-20010904/DTD/svg10.dtd">
<svg version="1.0" xmlns="http://www.w3.org/2000/svg"
 width="700.000000pt" height="700.000000pt" viewBox="0 0 700.000000 700.000000"
 preserveAspectRatio="xMidYMid meet">
<metadata>
Created by potrace 1.11, written by Peter Selinger 2001-2013
</metadata>
<g transform="translate(0.000000,700.000000) scale(0.100000,-0.100000)"
fill="#000000" stroke="none">
<path d="M3280 6654 c-131 -13 -215 -23 -240 -29 -8 -2 -33 -7 -55 -10 -52 -7
-77 -12 -197 -41 -586 -139 -1159 -477 -1578 -930 -100 -108 -125 -138 -201
-239 -179 -238 -304 -455 -411 -715 -50 -121 -118 -316 -132 -381 -3 -13 -19
-80 -35 -149 -16 -69 -31 -145 -35 -170 -3 -25 -8 -56 -10 -70 -28 -141 -39
-515 -22 -715 34 -403 138 -783 313 -1144 212 -437 537 -836 926 -1135 79 -61
274 -196 282 -196 3 0 28 -15 57 -34 73 -46 324 -167 433 -209 162 -63 210
-80 245 -88 19 -4 87 -22 150 -39 63 -16 131 -33 150 -36 19 -2 58 -9 85 -14
320 -61 731 -61 1105 1 145 24 494 120 575 159 11 5 45 19 75 31 151 58 437
211 575 308 28 19 73 50 100 70 28 19 64 46 81 61 17 14 50 41 74 60 273 222
544 544 731 870 158 275 297 634 353 910 3 14 7 36 10 50 3 13 8 40 11 60 3
20 8 47 10 60 3 14 7 45 10 70 3 25 8 54 10 65 24 115 24 573 1 745 -2 14 -7
52 -10 85 -4 33 -9 67 -12 77 -3 9 -9 40 -14 70 -15 85 -20 107 -46 208 -44
165 -111 360 -164 475 -126 274 -226 444 -387 655 -113 148 -136 175 -256 299
-379 388 -830 664 -1349 825 -189 58 -330 89 -558 121 -146 20 -477 25 -650 9z"/>
<path d="M5563 732 c-18 -3 -23 -10 -23 -33 0 -29 1 -29 55 -29 l55 0 0 -151
0 -150 37 3 38 3 -1 148 -1 147 54 0 53 0 0 33 0 32 -123 0 c-67 0 -132 -1
-144 -3z"/>
<path d="M5900 732 l-25 -3 2 -175 c0 -97 4 -178 7 -181 10 -11 55 -9 59 2 2
5 3 65 2 133 -1 68 2 117 6 111 4 -7 20 -66 36 -131 l28 -118 37 0 c42 0 35
-15 79 167 13 51 25 91 27 88 2 -2 4 -59 3 -126 -2 -130 1 -140 45 -131 l24 4
0 179 c0 112 -4 179 -10 180 -5 0 -23 1 -40 1 -16 0 -37 -1 -45 -1 -9 -1 -20
-22 -29 -53 -8 -29 -23 -84 -34 -123 l-19 -70 -13 45 c-7 25 -13 52 -15 60 -7
37 -34 132 -39 137 -6 6 -53 9 -86 5z"/>
</g>
</svg>
