<?xml version="1.0" encoding="iso-8859-1"?>
<!-- Generator: Adobe Illustrator 15.0.0, SVG Export Plug-In . SVG Version: 6.00 Build 0)  -->
<!DOCTYPE svg PUBLIC "-//W3C//DTD SVG 1.1//EN" "http://www.w3.org/Graphics/SVG/1.1/DTD/svg11.dtd">
<svg version="1.1" id="Layer_1" xmlns="http://www.w3.org/2000/svg" xmlns:xlink="http://www.w3.org/1999/xlink" x="0px" y="0px"
	 width="53.225px" height="46.729px" viewBox="0 0 53.225 46.729" style="enable-background:new 0 0 53.225 46.729;"
	 xml:space="preserve">
<g>
	<g>
		<g>
			<path style="fill:#B7B7B7;" d="M14.899,24.553c-1.785-0.26-4.924-0.545-5.807-2.38c-0.408-0.851,0.007-2.121,0.727-2.991
				c-0.362-0.292-1.414-1.122-1.46-1.538c-0.058-0.558,0.902-0.966,1.285-1.239c-0.636-0.719-1.129-0.888-1.129-1.583l1.479-1.758
				c-0.486-0.401-1.29-1-1.777-1.544c-0.812-0.81,1.946-2.198,2.854-2.873c0.67-0.493,2.66-2.023,2.575-3.022
				c-0.154-1.808,0.067-3.824,0.622-5.622C6.368,0.129,0,6.573,0,14.504c0,4.841,0.169,11.5,22.268,28.883
				C23.323,36.3,23.783,25.769,14.899,24.553z"/>
		</g>
		<g>
			<path style="fill:#BFBFBF;" d="M38.719,0c-4.887,0-9.237,2.459-11.854,6.211c-0.096,0.095-0.158,0.221-0.253,0.348
				c-0.063-0.127-0.252-0.348-0.252-0.348c-2.12-3.039-5.356-5.23-9.126-5.953c1.181,2.308,2.719,4.714,4.242,6.637
				c3.866,4.872,8.219,7.673,13.22,12.487c3.063,3.354,6.317,7.141,7.577,11.416c0.23,0.79,0.395,1.603,0.477,2.423
				C53.123,23.112,53.226,18.26,53.226,14.503C53.225,6.495,46.729,0,38.719,0z"/>
		</g>
		<g>
			<path style="fill:#FFFFFF;" d="M39.282,27.492c-1.154-2.687-2.199-5.073-4.565-7.007c-5.189-5.287-10.146-7.336-14.214-12.939
				c-1.464-2.023-3.079-4.772-3.692-7.361c-0.676-0.108-1.369-0.169-2.075-0.181c0.084,4.224,1.377,5.726,5.186,11.381
				c1.924,2.859,3.833,6.967,3.853,7c4.096,8.462,5.198,17.411-0.883,25.49c0.78,0.609,1.586,1.231,2.419,1.867
				c6.056-4.047,13.882-17.036,8.436-23.227c3.157,2.789,3.146,7.875,2.309,10.722c-1.204,4.104-5.248,10.598-10.717,12.523
				c0.419,0.319,0.845,0.642,1.276,0.967c6.229-4.69,10.999-8.675,14.653-12.092C40.973,32.159,40.133,29.459,39.282,27.492z"/>
		</g>
	</g>
</g>
</svg>
