<?xml version="1.0" encoding="iso-8859-1"?>
<!-- Generator: Adobe Illustrator 15.0.0, SVG Export Plug-In . SVG Version: 6.00 Build 0)  -->
<!DOCTYPE svg PUBLIC "-//W3C//DTD SVG 1.1//EN" "http://www.w3.org/Graphics/SVG/1.1/DTD/svg11.dtd">
<svg version="1.1" id="Layer_1" xmlns="http://www.w3.org/2000/svg" xmlns:xlink="http://www.w3.org/1999/xlink" x="0px" y="0px"
	 width="48.075px" height="46.563px" viewBox="0 0 48.075 46.563" style="enable-background:new 0 0 48.075 46.563;"
	 xml:space="preserve">
<g>
	<path style="fill:#FFFFFF;" d="M15.886,8.518V5.549c0-1.216,0.988-2.206,2.205-2.206h11.895c1.216,0,2.205,0.99,2.205,2.206v2.969
		h3.343V5.549C35.534,2.489,33.045,0,29.986,0H18.091c-3.06,0-5.549,2.488-5.549,5.549v2.969H15.886z"/>
	<path style="fill:#FFFFFF;" d="M11.833,27.143c0.563-6.248,5.811-11.145,12.204-11.145c6.395,0,11.642,4.896,12.206,11.145h11.832
		V13.799c0-2.126-1.724-3.851-3.85-3.851H3.851c-2.127,0-3.85,1.725-3.85,3.851v13.344H11.833z"/>
	<path style="fill:#FFFFFF;" d="M36.243,29.372c-0.563,6.246-5.812,11.143-12.205,11.143c-6.395,0-11.643-4.896-12.205-11.143H0
		v13.342c0,2.127,1.724,3.85,3.851,3.85h40.375c2.126,0,3.851-1.723,3.851-3.85V29.372H36.243z"/>
	<path style="fill:#FFFFFF;" d="M32.027,26.504h-5.632c-0.335,0-0.605-0.271-0.605-0.605v-5.633c0-0.334-0.271-0.604-0.607-0.604
		h-2.287c-0.336,0-0.607,0.271-0.607,0.604v5.633c0,0.334-0.271,0.605-0.607,0.605h-5.632c-0.334,0-0.606,0.272-0.606,0.606V29.4
		c0,0.334,0.272,0.607,0.606,0.607h5.632c0.336,0,0.607,0.271,0.607,0.604v5.634c0,0.334,0.271,0.604,0.607,0.604h2.287
		c0.336,0,0.607-0.271,0.607-0.604v-5.634c0-0.334,0.271-0.604,0.605-0.604h5.632c0.335,0,0.606-0.273,0.606-0.607v-2.289
		C32.633,26.778,32.362,26.504,32.027,26.504"/>
</g>
</svg>
