<?xml version="1.0" encoding="utf-8"?>
<!-- Generator: Adobe Illustrator 15.0.0, SVG Export Plug-In . SVG Version: 6.00 Build 0)  -->
<!DOCTYPE svg PUBLIC "-//W3C//DTD SVG 1.1//EN" "http://www.w3.org/Graphics/SVG/1.1/DTD/svg11.dtd">
<svg version="1.1" id="Layer_1" xmlns="http://www.w3.org/2000/svg" xmlns:xlink="http://www.w3.org/1999/xlink" x="0px" y="0px"
	 width="75px" height="33.16px" viewBox="0 0 75 33.16" enable-background="new 0 0 75 33.16" xml:space="preserve">
<g display="none">
	<path display="inline" fill="none" stroke="#FFFFFF" stroke-width="2" stroke-miterlimit="10" d="M65.807,19.873
		c0,1.508-1.223,2.729-2.729,2.729H11.924c-1.507,0-2.73-1.224-2.73-2.729V3.731C9.194,2.223,10.417,1,11.924,1h51.152
		c1.508,0,2.73,1.223,2.73,2.731V19.873L65.807,19.873z"/>
	<path display="inline" fill="none" stroke="#FFFFFF" stroke-width="2" stroke-miterlimit="10" d="M9.194,27.32
		c0,1.51-1.223,2.73-2.73,2.73H3.73c-1.507,0-2.73-1.224-2.73-2.73V8.946c0-1.508,1.223-2.732,2.73-2.732h2.734
		c1.507,0,2.73,1.225,2.73,2.732V27.32z"/>
	<path display="inline" fill="none" stroke="#FFFFFF" stroke-width="2" stroke-miterlimit="10" d="M74,27.32
		c0,1.51-1.223,2.73-2.73,2.73h-2.732c-1.51,0-2.729-1.224-2.729-2.73V8.946c0-1.508,1.221-2.732,2.729-2.732h2.732
		c1.508,0,2.73,1.225,2.73,2.732V27.32z"/>
	
		<rect x="9.194" y="22.602" display="inline" fill="none" stroke="#FFFFFF" stroke-width="2" stroke-miterlimit="10" width="56.613" height="5.959"/>
	<path display="inline" fill="none" stroke="#FFFFFF" stroke-miterlimit="10" d="M7.332,31.167c0,1.063-0.5,1.489-1.117,1.489H3.979
		c-0.618,0-1.117-0.428-1.117-1.489s0.5-1.489,1.117-1.489h2.235C6.832,29.678,7.332,30.105,7.332,31.167z"/>
	<path display="inline" fill="none" stroke="#FFFFFF" stroke-miterlimit="10" d="M72.139,31.167c0,1.063-0.5,1.489-1.117,1.489
		h-2.234c-0.618,0-1.117-0.428-1.117-1.489s0.5-1.489,1.117-1.489h2.234C71.639,29.678,72.139,30.105,72.139,31.167z"/>
	<path display="inline" fill="none" stroke="#FFFFFF" stroke-width="2" stroke-miterlimit="10" d="M65.807,19.873
		c0,1.508-1.223,2.729-2.729,2.729H11.924c-1.507,0-2.73-1.224-2.73-2.729v-3.478c0-1.51,1.223-2.732,2.73-2.732h51.152
		c1.508,0,2.73,1.223,2.73,2.732V19.873L65.807,19.873z"/>
</g>
<g>
	<g>
		<path fill="#FFFFFF" d="M63.077,23.602H11.924c-2.057,0-3.73-1.673-3.73-3.729V3.731C8.194,1.674,9.867,0,11.924,0h51.152
			c2.057,0,3.73,1.674,3.73,3.731v16.142C66.807,21.929,65.134,23.602,63.077,23.602z M11.924,2c-0.954,0-1.73,0.776-1.73,1.731
			v16.142c0,0.953,0.776,1.729,1.73,1.729h51.153c0.954,0,1.729-0.775,1.729-1.729V3.731C64.807,2.776,64.03,2,63.076,2H11.924z"/>
	</g>
	<g>
		<path fill="#FFFFFF" d="M6.464,31.051H3.73c-2.057,0-3.73-1.674-3.73-3.73V8.946c0-2.058,1.673-3.732,3.73-3.732h2.734
			c2.057,0,3.73,1.674,3.73,3.732V27.32C10.194,29.377,8.521,31.051,6.464,31.051z M3.73,7.214C2.776,7.214,2,7.991,2,8.946V27.32
			c0,0.954,0.776,1.73,1.73,1.73h2.734c0.954,0,1.73-0.776,1.73-1.73V8.946c0-0.955-0.776-1.732-1.73-1.732H3.73z"/>
	</g>
	<g>
		<path fill="#FFFFFF" d="M71.27,31.051h-2.732c-2.056,0-3.729-1.674-3.729-3.73V8.946c0-2.058,1.673-3.732,3.729-3.732h2.732
			c2.057,0,3.73,1.674,3.73,3.732V27.32C75,29.377,73.326,31.051,71.27,31.051z M68.537,7.214c-0.953,0-1.729,0.777-1.729,1.732
			V27.32c0,0.954,0.775,1.73,1.729,1.73h2.732c0.954,0,1.73-0.776,1.73-1.73V8.946c0-0.955-0.776-1.732-1.73-1.732H68.537z"/>
	</g>
	<g>
		<path fill="#FFFFFF" d="M66.807,29.561H8.194v-7.959h58.613V29.561z M10.194,27.561h54.613v-3.959H10.194V27.561z"/>
	</g>
	<g>
		<path fill="#FFFFFF" d="M6.215,33.156H3.979c-0.782,0-1.617-0.522-1.617-1.989s0.835-1.989,1.617-1.989h2.235
			c0.782,0,1.618,0.522,1.618,1.989S6.997,33.156,6.215,33.156z M3.979,30.178c-0.41,0-0.617,0.333-0.617,0.989
			c0,0.989,0.464,0.989,0.617,0.989h2.236c0.153,0,0.617,0,0.617-0.989s-0.465-0.989-0.618-0.989H3.979z"/>
	</g>
	<g>
		<path fill="#FFFFFF" d="M71.021,33.156h-2.234c-0.782,0-1.617-0.522-1.617-1.989s0.835-1.989,1.617-1.989h2.234
			c0.782,0,1.617,0.522,1.617,1.989S71.804,33.156,71.021,33.156z M68.787,30.178c-0.409,0-0.617,0.333-0.617,0.989
			c0,0.989,0.465,0.989,0.617,0.989h2.234c0.152,0,0.617,0,0.617-0.989c0-0.656-0.208-0.989-0.617-0.989H68.787z"/>
	</g>
	<g>
		<path fill="#FFFFFF" d="M63.077,23.602H11.924c-2.057,0-3.73-1.673-3.73-3.729v-3.478c0-2.058,1.673-3.732,3.73-3.732h51.152
			c2.057,0,3.73,1.674,3.73,3.732v3.478C66.807,21.929,65.134,23.602,63.077,23.602z M11.924,14.663c-0.954,0-1.73,0.777-1.73,1.732
			v3.478c0,0.953,0.776,1.729,1.73,1.729h51.153c0.954,0,1.729-0.775,1.729-1.729v-3.478c0-0.955-0.776-1.732-1.73-1.732H11.924z"/>
	</g>
</g>
</svg>
