<?xml version="1.0" encoding="iso-8859-1"?>
<!-- Generator: Adobe Illustrator 15.0.0, SVG Export Plug-In . SVG Version: 6.00 Build 0)  -->
<!DOCTYPE svg PUBLIC "-//W3C//DTD SVG 1.1//EN" "http://www.w3.org/Graphics/SVG/1.1/DTD/svg11.dtd">
<svg version="1.1" id="Layer_1" xmlns="http://www.w3.org/2000/svg" xmlns:xlink="http://www.w3.org/1999/xlink" x="0px" y="0px"
	 width="76.363px" height="48.691px" viewBox="0 0 76.363 48.691" style="enable-background:new 0 0 76.363 48.691;"
	 xml:space="preserve">
<g id="icon_8_">
	<rect x="34.196" y="4.306" style="fill:#CCCCCC;" width="6.988" height="3.696"/>
	<g>
		<path style="fill:#FFFFFF;" d="M76.322,21.11c0.208,0.938-0.382,1.867-1.314,2.074l-7.849,1.752
			c-0.936,0.209-1.86-0.381-2.069-1.317l-0.439-1.979c-0.208-0.938,0.384-1.865,1.315-2.074l7.849-1.751
			c0.936-0.21,1.86,0.38,2.07,1.316L76.322,21.11z"/>
		<path style="fill:#FFFFFF;" d="M0.042,21.11c-0.207,0.938,0.381,1.867,1.314,2.074l7.85,1.752
			c0.934,0.209,1.858-0.381,2.067-1.317l0.439-1.979c0.209-0.938-0.382-1.865-1.314-2.074L2.55,17.814
			c-0.935-0.21-1.86,0.38-2.07,1.316L0.042,21.11z"/>
	</g>
	<g>
		<path style="fill:#FFFFFF;" d="M66.804,14.691v29.011c0,2.755-2.615,4.989-5.842,4.989H14.42c-3.228,0-5.843-2.234-5.843-4.989
			V14.691"/>
	</g>
	<g>
		<path style="fill:#D5D8DC;" d="M8.575,14.581c0-4.267,13.035-7.725,29.114-7.725c16.08,0,29.116,3.458,29.116,7.725H8.575z"/>
	</g>
	<ellipse style="fill:#FFFFFF;" cx="37.691" cy="3" rx="6.251" ry="2.999"/>
</g>
</svg>
