<?xml version="1.0" encoding="iso-8859-1"?>
<!-- Generator: Adobe Illustrator 15.0.0, SVG Export Plug-In . SVG Version: 6.00 Build 0)  -->
<!DOCTYPE svg PUBLIC "-//W3C//DTD SVG 1.1//EN" "http://www.w3.org/Graphics/SVG/1.1/DTD/svg11.dtd">
<svg version="1.1" id="Layer_1" xmlns="http://www.w3.org/2000/svg" xmlns:xlink="http://www.w3.org/1999/xlink" x="0px" y="0px"
	 width="76.355px" height="51.826px" viewBox="0 0 76.355 51.826" style="enable-background:new 0 0 76.355 51.826;"
	 xml:space="preserve">
<g>
	<path style="fill:#FDFEFF;" d="M69.481,23.103c-0.158-0.114-0.359-0.144-0.543-0.081c0,0-20.459,6.958-21.019,7.15
		c-0.467,0.162-0.771-0.243-0.771-0.243l-6.438-7.952c-0.16-0.197-0.428-0.272-0.668-0.188c-0.239,0.084-0.399,0.312-0.399,0.566
		v28.86c0,0.2,0.1,0.39,0.268,0.5c0.101,0.067,0.216,0.103,0.334,0.103c0.078,0,0.156-0.016,0.229-0.045L69.36,39.836
		c0.227-0.092,0.373-0.313,0.373-0.556V23.592C69.733,23.398,69.64,23.214,69.481,23.103"/>
	<path style="fill:#FDFEFF;" d="M76.237,16.653l-5.516-7.367c-0.078-0.106-0.189-0.183-0.316-0.219L38.358,0.02
		c-0.107-0.031-0.252-0.021-0.36,0.008L5.951,9.075C5.824,9.111,5.712,9.187,5.634,9.294L0.12,16.662
		c-0.115,0.154-0.148,0.354-0.094,0.537c0.059,0.185,0.199,0.33,0.383,0.392l27.098,9.197c0.063,0.021,0.13,0.033,0.193,0.033
		c0.178,0,0.351-0.079,0.467-0.223l7.586-9.352l2.248,0.619c0.105,0.029,0.215,0.029,0.32,0v-0.002
		c0.011-0.003,0.021-0.004,0.033-0.007l2.248-0.618l7.586,9.35c0.117,0.143,0.289,0.223,0.467,0.223c0.066,0,0.131-0.01,0.193-0.033
		l27.098-9.195c0.184-0.062,0.326-0.208,0.383-0.392C76.386,17.007,76.351,16.807,76.237,16.653 M38.195,15.306l-22.981-6.28
		l22.981-6.449l22.946,6.442L38.195,15.306z"/>
	<path style="fill:#FDFEFF;" d="M36.313,21.797c-0.241-0.085-0.509-0.01-0.669,0.188l-6.438,7.952c0,0-0.303,0.404-0.771,0.244
		c-0.56-0.193-21.017-7.151-21.017-7.151c-0.185-0.063-0.387-0.032-0.545,0.081c-0.158,0.112-0.252,0.295-0.252,0.489v15.688
		c0,0.244,0.147,0.463,0.373,0.557l28.887,11.938c0.073,0.031,0.152,0.045,0.229,0.045c0.118,0,0.234-0.035,0.336-0.102
		c0.166-0.111,0.267-0.3,0.267-0.5V22.364C36.713,22.109,36.553,21.882,36.313,21.797"/>
</g>
</svg>
