<?xml version="1.0" encoding="iso-8859-1"?>
<!-- Generator: Adobe Illustrator 19.0.0, SVG Export Plug-In . SVG Version: 6.00 Build 0)  -->

<svg xmlns="http://www.w3.org/2000/svg" xmlns:xlink="http://www.w3.org/1999/xlink" version="1.1" id="Layer_1" x="0px" y="0px" viewBox="0 0 512.001 512.001" style="enable-background:new 0 0 512.001 512.001;" xml:space="preserve" width="512px" height="512px">
    <style>
<![CDATA[ 

#tiles>path{
transition:all 400ms ease-in-out;
}
#tiles:hover>path:first-child{
transform:translate(0%, -40%);
}
#tiles:hover>path:nth-child(2){
transform:translate(0%, -20%);
}
#tiles:hover>path:nth-child(3){
transform:translate(0%, -30%);
}
]]>

</style>
<g>
	<g>
		<g id="tiles">
			<path d="M186.688,135.438l64,45.714c1.591,1.134,3.447,1.71,5.312,1.71c1.865,0,3.721-0.576,5.312-1.71l64-45.714     c2.405-1.71,3.831-4.48,3.831-7.433c0-2.962-1.426-5.723-3.831-7.442l-64-45.714c-3.182-2.267-7.442-2.267-10.624,0l-64,45.714     c-2.405,1.719-3.831,4.48-3.831,7.442C182.857,130.958,184.283,133.728,186.688,135.438z" fill="#FFFFFF"/>
			<path d="M274.286,192c0,2.953,1.426,5.723,3.831,7.433l64,45.714c1.591,1.134,3.447,1.71,5.312,1.71     c1.865,0,3.721-0.576,5.312-1.71l64-45.714c2.405-1.71,3.831-4.48,3.831-7.433c0-2.953-1.426-5.723-3.831-7.433l-64-45.714     c-3.182-2.277-7.442-2.277-10.624,0l-64,45.714C275.712,186.277,274.286,189.047,274.286,192z" fill="#FFFFFF"/>
			<path d="M95.259,199.438l64,45.714c1.591,1.134,3.447,1.71,5.312,1.71c1.865,0,3.721-0.576,5.312-1.71l64-45.714     c2.405-1.71,3.831-4.48,3.831-7.433c0-2.962-1.426-5.723-3.831-7.442l-64-45.714c-3.182-2.267-7.442-2.267-10.624,0l-64,45.714     c-2.405,1.719-3.831,4.48-3.831,7.442C91.429,194.958,92.855,197.728,95.259,199.438z" fill="#FFFFFF"/>
			<path d="M261.313,202.848c-3.182-2.267-7.442-2.267-10.624,0l-64,45.714c-2.405,1.71-3.831,4.48-3.831,7.433     c0,2.962,1.426,5.723,3.831,7.442l64,45.714c1.591,1.134,3.447,1.701,5.312,1.701c1.865,0,3.721-0.567,5.312-1.701l64-45.714     c2.405-1.719,3.831-4.48,3.831-7.442c0-2.953-1.426-5.723-3.831-7.433L261.313,202.848z" fill="#FFFFFF"/>
			<path d="M325.313,376.563l-64-45.714c-3.182-2.267-7.442-2.267-10.624,0l-64,45.714c-2.405,1.71-3.831,4.48-3.831,7.433     c0,2.962,1.426,5.723,3.831,7.442l64,45.714c1.591,1.134,3.447,1.701,5.312,1.701c1.865,0,3.721-0.567,5.312-1.701l64-45.714     c2.405-1.719,3.831-4.48,3.831-7.442C329.144,381.043,327.717,378.272,325.313,376.563z" fill="#FFFFFF"/>
			<path d="M508.17,248.563l-64-45.714c-3.182-2.267-7.442-2.267-10.624,0l-64,45.714c-2.405,1.71-3.831,4.48-3.831,7.433     c0,2.962,1.426,5.723,3.831,7.442l64,45.714c1.591,1.134,3.447,1.701,5.312,1.701c1.865,0,3.721-0.567,5.312-1.701l64-45.714     c2.405-1.719,3.831-4.48,3.831-7.442C512.001,253.043,510.575,250.272,508.17,248.563z" fill="#FFFFFF"/>
			<path d="M416.741,312.563l-64-45.714c-3.182-2.267-7.442-2.267-10.624,0l-64,45.714c-2.405,1.71-3.831,4.48-3.831,7.433     c0,2.962,1.426,5.723,3.831,7.442l64,45.714c1.591,1.134,3.447,1.701,5.312,1.701c1.865,0,3.721-0.567,5.312-1.701l64-45.714     c2.405-1.719,3.831-4.48,3.831-7.442C420.572,317.043,419.146,314.272,416.741,312.563z" fill="#FFFFFF"/>
			<path d="M146.286,256c0-2.953-1.426-5.723-3.831-7.433l-64-45.714c-3.182-2.277-7.442-2.277-10.624,0l-64,45.714     C1.426,250.277,0,253.047,0,256c0,2.953,1.426,5.723,3.831,7.433l64,45.714c1.591,1.134,3.447,1.71,5.312,1.71     c1.865,0,3.721-0.576,5.312-1.71l64-45.714C144.859,261.724,146.286,258.954,146.286,256z" fill="#FFFFFF"/>
			<path d="M237.714,320c0-2.953-1.426-5.723-3.831-7.433l-64-45.714c-3.182-2.277-7.442-2.277-10.624,0l-64,45.714     c-2.405,1.71-3.831,4.48-3.831,7.433c0,2.953,1.426,5.723,3.831,7.433l64,45.714c1.591,1.134,3.447,1.71,5.312,1.71     c1.865,0,3.721-0.576,5.312-1.71l64-45.714C236.288,325.724,237.714,322.954,237.714,320z" fill="#FFFFFF"/>
		</g>
	</g>
</g>
<g>
</g>
<g>
</g>
<g>
</g>
<g>
</g>
<g>
</g>
<g>
</g>
<g>
</g>
<g>
</g>
<g>
</g>
<g>
</g>
<g>
</g>
<g>
</g>
<g>
</g>
<g>
</g>
<g>
</g>
</svg>
