<?xml version="1.0" encoding="iso-8859-1"?>
<!-- Generator: Adobe Illustrator 15.0.0, SVG Export Plug-In . SVG Version: 6.00 Build 0)  -->
<!DOCTYPE svg PUBLIC "-//W3C//DTD SVG 1.1//EN" "http://www.w3.org/Graphics/SVG/1.1/DTD/svg11.dtd">
<svg version="1.1" id="Layer_1" xmlns="http://www.w3.org/2000/svg" xmlns:xlink="http://www.w3.org/1999/xlink" x="0px" y="0px"
	 width="44.225px" height="44.225px" viewBox="0 0 44.225 44.225" style="enable-background:new 0 0 44.225 44.225;"
	 xml:space="preserve">
<g>
	<polyline style="fill:#B3B3B3;" points="5.65,0.323 0.323,0.323 0.323,5.649 5.65,5.649 5.65,0.323 	"/>
	<polyline style="fill:#FFFFFF;" points="11.137,0.323 5.65,0.323 5.65,5.649 11.137,5.649 11.137,0.323 	"/>
	<polyline style="fill:#B3B3B3;" points="16.625,0.323 11.137,0.323 11.137,5.649 16.625,5.649 16.625,0.323 	"/>
	<polyline style="fill:#FFFFFF;" points="22.112,0.323 16.625,0.323 16.625,5.649 22.112,5.649 22.112,0.323 	"/>
	<polyline style="fill:#B3B3B3;" points="27.601,0.323 22.112,0.323 22.112,5.649 27.601,5.649 27.601,0.323 	"/>
	<polyline style="fill:#FFFFFF;" points="33.088,0.323 27.601,0.323 27.601,5.649 33.088,5.649 33.088,0.323 	"/>
	<polyline style="fill:#B3B3B3;" points="38.576,0.323 33.088,0.323 33.088,5.649 38.576,5.649 38.576,0.323 	"/>
	<polyline style="fill:#FFFFFF;" points="43.901,0.323 38.576,0.323 38.576,5.649 43.901,5.649 43.901,0.323 	"/>
	<polyline style="fill:#FFFFFF;" points="5.65,5.649 5.65,5.649 0.323,5.649 0.323,11.137 5.65,11.137 5.65,5.649 	"/>
	<polyline style="fill:#B3B3B3;" points="11.137,5.649 11.137,5.649 5.65,5.649 5.65,11.137 11.137,11.137 11.137,5.649 	"/>
	<polyline style="fill:#FFFFFF;" points="16.625,5.649 16.625,5.649 11.137,5.649 11.137,11.137 16.625,11.137 16.625,5.649 	"/>
	<polyline style="fill:#B3B3B3;" points="22.112,5.649 22.112,5.649 16.625,5.649 16.625,11.137 22.112,11.137 22.112,5.649 	"/>
	<polyline style="fill:#FFFFFF;" points="27.601,5.649 27.601,5.649 22.112,5.649 22.112,11.137 27.601,11.137 27.601,5.649 	"/>
	<polyline style="fill:#B3B3B3;" points="33.088,5.649 33.088,5.649 27.601,5.649 27.601,11.137 33.088,11.137 33.088,5.649 	"/>
	<polyline style="fill:#FFFFFF;" points="38.576,5.649 38.576,5.649 33.088,5.649 33.088,11.137 38.576,11.137 38.576,5.649 	"/>
	<polyline style="fill:#B3B3B3;" points="43.901,5.649 38.576,5.649 38.576,11.137 43.901,11.137 43.901,5.649 	"/>
	<polyline style="fill:#B3B3B3;" points="5.65,11.137 5.65,11.137 0.323,11.137 0.323,16.624 5.65,16.624 5.65,11.137 	"/>
	<polyline style="fill:#FFFFFF;" points="11.137,11.137 11.137,11.137 5.65,11.137 5.65,16.624 11.137,16.624 11.137,11.137 	"/>
	<polyline style="fill:#B3B3B3;" points="16.625,11.137 16.625,11.137 11.137,11.137 11.137,16.624 16.625,16.624 16.625,11.137 	
		"/>
	<polyline style="fill:#FFFFFF;" points="22.112,11.137 22.112,11.137 16.625,11.137 16.625,16.624 22.112,16.624 22.112,11.137 	
		"/>
	<polyline style="fill:#B3B3B3;" points="27.601,11.137 27.601,11.137 22.112,11.137 22.112,16.624 27.601,16.624 27.601,11.137 	
		"/>
	<polyline style="fill:#FFFFFF;" points="33.088,11.137 33.088,11.137 27.601,11.137 27.601,16.624 33.088,16.624 33.088,11.137 	
		"/>
	<polyline style="fill:#B3B3B3;" points="38.576,11.137 38.576,11.137 33.088,11.137 33.088,16.624 38.576,16.624 38.576,11.137 	
		"/>
	<polyline style="fill:#FFFFFF;" points="43.901,11.137 38.576,11.137 38.576,16.624 43.901,16.624 43.901,11.137 	"/>
	<polyline style="fill:#FFFFFF;" points="5.65,16.624 5.65,16.624 0.323,16.624 0.323,22.112 5.65,22.112 5.65,16.624 	"/>
	<polyline style="fill:#B3B3B3;" points="11.137,16.624 11.137,16.624 5.65,16.624 5.65,22.112 11.137,22.112 11.137,16.624 	"/>
	<polyline style="fill:#FFFFFF;" points="16.625,16.624 16.625,16.624 11.137,16.624 11.137,22.112 16.625,22.112 16.625,16.624 	
		"/>
	<polyline style="fill:#B3B3B3;" points="22.112,16.624 22.112,16.624 16.625,16.624 16.625,22.112 22.112,22.112 22.112,16.624 	
		"/>
	<polyline style="fill:#FFFFFF;" points="27.601,16.624 27.601,16.624 22.112,16.624 22.112,22.112 27.601,22.112 27.601,16.624 	
		"/>
	<polyline style="fill:#B3B3B3;" points="33.088,16.624 33.088,16.624 27.601,16.624 27.601,22.112 33.088,22.112 33.088,16.624 	
		"/>
	<polyline style="fill:#FFFFFF;" points="38.576,16.624 38.576,16.624 33.088,16.624 33.088,22.112 38.576,22.112 38.576,16.624 	
		"/>
	<polyline style="fill:#B3B3B3;" points="43.901,16.624 38.576,16.624 38.576,22.112 43.901,22.112 43.901,16.624 	"/>
	<polyline style="fill:#B3B3B3;" points="5.65,22.112 5.65,22.112 0.323,22.112 0.323,27.601 5.65,27.601 5.65,22.112 	"/>
	<polyline style="fill:#FFFFFF;" points="11.137,22.112 11.137,22.112 5.65,22.112 5.65,27.601 11.137,27.601 11.137,22.112 	"/>
	<polyline style="fill:#B3B3B3;" points="16.625,22.112 16.625,22.112 11.137,22.112 11.137,27.601 16.625,27.601 16.625,22.112 	
		"/>
	<polyline style="fill:#FFFFFF;" points="22.112,22.112 22.112,22.112 16.625,22.112 16.625,27.601 22.112,27.601 22.112,22.112 	
		"/>
	<polyline style="fill:#B3B3B3;" points="27.601,22.112 27.601,22.112 22.112,22.112 22.112,27.601 27.601,27.601 27.601,22.112 	
		"/>
	<polyline style="fill:#FFFFFF;" points="33.088,22.112 33.088,22.112 27.601,22.112 27.601,27.601 33.088,27.601 33.088,22.112 	
		"/>
	<polyline style="fill:#B3B3B3;" points="38.576,22.112 38.576,22.112 33.088,22.112 33.088,27.601 38.576,27.601 38.576,22.112 	
		"/>
	<polyline style="fill:#FFFFFF;" points="43.901,22.112 38.576,22.112 38.576,27.601 43.901,27.601 43.901,22.112 	"/>
	<polyline style="fill:#FFFFFF;" points="5.65,27.601 5.65,27.601 0.323,27.601 0.323,33.088 5.65,33.088 5.65,27.601 	"/>
	<polyline style="fill:#B3B3B3;" points="11.137,27.601 11.137,27.601 5.65,27.601 5.65,33.088 11.137,33.088 11.137,27.601 	"/>
	<polyline style="fill:#FFFFFF;" points="16.625,27.601 16.625,27.601 11.137,27.601 11.137,33.088 16.625,33.088 16.625,27.601 	
		"/>
	<polyline style="fill:#B3B3B3;" points="22.112,27.601 22.112,27.601 16.625,27.601 16.625,33.088 22.112,33.088 22.112,27.601 	
		"/>
	<polyline style="fill:#FFFFFF;" points="27.601,27.601 27.601,27.601 22.112,27.601 22.112,33.088 27.601,33.088 27.601,27.601 	
		"/>
	<polyline style="fill:#B3B3B3;" points="33.088,27.601 33.088,27.601 27.601,27.601 27.601,33.088 33.088,33.088 33.088,27.601 	
		"/>
	<polyline style="fill:#FFFFFF;" points="38.576,27.601 38.576,27.601 33.088,27.601 33.088,33.088 38.576,33.088 38.576,27.601 	
		"/>
	<polyline style="fill:#B3B3B3;" points="43.901,27.601 38.576,27.601 38.576,33.088 43.901,33.088 43.901,27.601 	"/>
	<polyline style="fill:#B3B3B3;" points="5.65,33.088 5.65,33.088 0.323,33.088 0.323,38.575 5.65,38.575 5.65,33.088 	"/>
	<polyline style="fill:#FFFFFF;" points="11.137,33.088 11.137,33.088 5.65,33.088 5.65,38.575 11.137,38.575 11.137,33.088 	"/>
	<polyline style="fill:#B3B3B3;" points="16.625,33.088 16.625,33.088 11.137,33.088 11.137,38.575 16.625,38.575 16.625,33.088 	
		"/>
	<polyline style="fill:#FFFFFF;" points="22.112,33.088 22.112,33.088 16.625,33.088 16.625,38.575 22.112,38.575 22.112,33.088 	
		"/>
	<polyline style="fill:#B3B3B3;" points="27.601,33.088 27.601,33.088 22.112,33.088 22.112,38.575 27.601,38.575 27.601,33.088 	
		"/>
	<polyline style="fill:#FFFFFF;" points="33.088,33.088 33.088,33.088 27.601,33.088 27.601,38.575 33.088,38.575 33.088,33.088 	
		"/>
	<polyline style="fill:#B3B3B3;" points="38.576,33.088 38.576,33.088 33.088,33.088 33.088,38.575 38.576,38.575 38.576,33.088 	
		"/>
	<polyline style="fill:#FFFFFF;" points="43.901,33.088 38.576,33.088 38.576,38.575 43.901,38.575 43.901,33.088 	"/>
	<polyline style="fill:#FFFFFF;" points="5.65,38.575 5.65,38.575 0.323,38.575 0.323,43.901 5.65,43.901 5.65,38.575 	"/>
	<polyline style="fill:#B3B3B3;" points="11.137,38.575 11.137,38.575 5.65,38.575 5.65,43.901 11.137,43.901 11.137,38.575 	"/>
	<polyline style="fill:#FFFFFF;" points="16.625,38.575 16.625,38.575 11.137,38.575 11.137,43.901 16.625,43.901 16.625,38.575 	
		"/>
	<polyline style="fill:#B3B3B3;" points="22.112,38.575 22.112,38.575 16.625,38.575 16.625,43.901 22.112,43.901 22.112,38.575 	
		"/>
	<polyline style="fill:#FFFFFF;" points="27.601,38.575 27.601,38.575 22.112,38.575 22.112,43.901 27.601,43.901 27.601,38.575 	
		"/>
	<polyline style="fill:#B3B3B3;" points="33.088,38.575 33.088,38.575 27.601,38.575 27.601,43.901 33.088,43.901 33.088,38.575 	
		"/>
	<polyline style="fill:#FFFFFF;" points="38.576,38.575 38.576,38.575 33.088,38.575 33.088,43.901 38.576,43.901 38.576,38.575 	
		"/>
	<polyline style="fill:#B3B3B3;" points="43.901,38.575 38.576,38.575 38.576,43.901 43.901,43.901 43.901,38.575 	"/>
	<path style="fill:#B3B3B3;" d="M38.576,0.323h5.324v5.326v5.487v5.487v5.487v5.488v5.487v5.486v5.326h-5.324h-5.488h-5.487h-5.488
		h-5.486h-5.488H5.65H0.323v-5.326v-5.486v-5.487v-5.488v-5.487v-5.487V5.649V0.323H5.65h5.486h5.488h5.486h5.488h5.487H38.576
		 M44.225,0H0v44.225h44.225V0"/>
</g>
</svg>
