<?xml version="1.0" encoding="iso-8859-1"?>
<!-- Generator: Adobe Illustrator 15.0.0, SVG Export Plug-In . SVG Version: 6.00 Build 0)  -->
<!DOCTYPE svg PUBLIC "-//W3C//DTD SVG 1.1//EN" "http://www.w3.org/Graphics/SVG/1.1/DTD/svg11.dtd">
<svg version="1.1" id="Layer_1" xmlns="http://www.w3.org/2000/svg" xmlns:xlink="http://www.w3.org/1999/xlink" x="0px" y="0px"
	 width="71.387px" height="36.938px" viewBox="0 0 71.387 36.938" style="enable-background:new 0 0 71.387 36.938;"
	 xml:space="preserve">
<g>
	<path style="fill:#FFFFFF;" d="M53.077,16.949c2.329-1.263,18.139-10.01,18.139-10.01l-0.012-0.091l-0.059-0.062l-15.489,6.278
		c0,0-0.242,0.104-0.352-0.129c-0.108-0.234,0.128-0.35,0.128-0.35l14.72-7.906L70.15,4.586l-0.07-0.066l-15.502,6.226
		c0,0-0.244,0.108-0.346-0.106c-0.101-0.215,0.139-0.339,0.139-0.339l14.73-7.87l-0.009-0.094l-0.065-0.069L53.507,8.461
		c0,0-0.242,0.103-0.347-0.128c-0.106-0.226,0.123-0.354,0.123-0.354l14.768-7.827L68.04,0.064L67.979,0
		c0,0-16.861,6.487-19.328,7.464c-0.232,0.091-0.317,0.273-0.29,0.516c0.102,0.815-0.017,2.923-2.119,5.171
		c-2.138,2.395-34.78,14.821-41.908,17.392C2.563,31.18,0.463,32.961,0,35.928c2.568,1.55,5.281,1.084,6.911,0.139
		C13.462,32.26,43.96,15.238,47.169,15.14c3.076-0.168,4.765,1.099,5.326,1.699C52.659,17.019,52.854,17.069,53.077,16.949
		 M4.814,30.958c1.391-0.498,1.877-0.543,1.877-0.543s-2.287,0.827-3.324,1.621c-0.906,0.649-1.783,1.534-2.809,3.585
		C1.206,33.042,3.173,31.552,4.814,30.958 M52.543,16.456c-0.561-0.604-2.147-1.914-5.227-1.746c0,0,2.129-0.425,4.557,0.794
		c0.336,0.17,1.089,0.614,1.652,0.427c0.621-0.208,1.645-0.691,4.097-1.877c-2.125,1.193-3.84,2.153-4.497,2.513
		C52.905,16.684,52.708,16.632,52.543,16.456"/>
	<path style="fill:#FFFFFF;" d="M67.049,30.144c-3.65-1.314-18.336-7.207-31.774-13.271C22.166,9.535,6.839,3.452,4.516,2.177
		c-2.5-1.369-3.856,0.537-1.462,3.839c3.948,5.442,19.9,14.21,30.074,14.374c0.228,0.032,0.327,0.03,0.537,0.076
		c4.396,0.986,24.557,11.568,30.809,15.204c1.626,0.944,4.341,1.41,6.909-0.139l0.003-0.004
		C70.92,32.563,68.821,30.782,67.049,30.144 M4.697,7.18c0,0-0.357-0.216-0.992-1.027C2.128,4.137,1.906,2.756,2.581,2.171
		c-0.398,0.756-0.08,1.694,0.418,2.608C3.682,6.033,4.697,7.18,4.697,7.18 M34.528,19.924c-0.205,0.44-0.722,0.339-0.901,0.255
		c0,0,0.343-0.137,0.506-0.487l1.099-2.353c0.138-0.297,0.546-0.091,0.409,0.201L34.528,19.924z M70.75,35.146
		c-1.023-2.055-1.9-2.939-2.808-3.588c-1.036-0.792-3.323-1.62-3.323-1.62s0.486,0.046,1.874,0.544
		C68.136,31.074,70.103,32.564,70.75,35.146"/>
</g>
</svg>
