<?xml version="1.0" encoding="iso-8859-1"?>
<!-- Generator: Adobe Illustrator 15.0.0, SVG Export Plug-In . SVG Version: 6.00 Build 0)  -->
<!DOCTYPE svg PUBLIC "-//W3C//DTD SVG 1.1//EN" "http://www.w3.org/Graphics/SVG/1.1/DTD/svg11.dtd">
<svg version="1.1" id="Layer_1" xmlns="http://www.w3.org/2000/svg" xmlns:xlink="http://www.w3.org/1999/xlink" x="0px" y="0px"
	 width="78.007px" height="32.367px" viewBox="0 0 78.007 32.367" style="enable-background:new 0 0 78.007 32.367;"
	 xml:space="preserve">
<path style="fill:#F4F0EE;" d="M78.007,6.263l-2.49-1.711l-1.896-1.39C47.703,9.863,40.511,27.285,40.511,27.285l-0.001,0.006
	c-0.206,0.389-0.384,0.775-0.521,1.156c0,0,3.667-20.48,33.632-25.285L72.23,2.024c0,0-27.592,2.656-32.95,23.769
	c0,0,4.124-22.504,32.064-24.528L70.082,0c0,0-27.228,2.033-31.079,22.229C35.151,2.033,7.925,0,7.925,0L6.66,1.265
	c27.941,2.024,32.065,24.528,32.065,24.528C33.367,4.679,5.775,2.023,5.775,2.023l-1.39,1.139
	c29.964,4.805,33.631,25.285,33.631,25.285c-0.136-0.381-0.313-0.768-0.52-1.156l-0.002-0.006c0,0-7.191-17.422-33.109-24.123
	l-1.897,1.39L0,6.263l35.488,25.346l3.237,0.647v0.109l0.277-0.056l0.277,0.056v-0.109l3.237-0.647L78.007,6.263z"/>
</svg>
