<?xml version="1.0" encoding="iso-8859-1"?>
<!-- Generator: Adobe Illustrator 15.0.0, SVG Export Plug-In . SVG Version: 6.00 Build 0)  -->
<!DOCTYPE svg PUBLIC "-//W3C//DTD SVG 1.1//EN" "http://www.w3.org/Graphics/SVG/1.1/DTD/svg11.dtd">
<svg version="1.1" id="Layer_1" xmlns="http://www.w3.org/2000/svg" xmlns:xlink="http://www.w3.org/1999/xlink" x="0px" y="0px"
	 width="51.85px" height="47.42px" viewBox="0 0 51.85 47.42" style="enable-background:new 0 0 51.85 47.42;" xml:space="preserve"
	>
<g>
	<path style="fill:#FFFFFF;" d="M8.692,34.505c-1.393-2.253-2.411-5.707-2.411-9.396c0-11.066,9.001-20.067,20.063-20.067
		c2.279,0,4.462,0.399,6.502,1.102l-2.435-2.954c-1.322-0.247-2.675-0.395-4.067-0.395c-12.301,0-22.312,10.009-22.312,22.314
		c0,4.107,1.135,7.949,2.729,10.537L8.692,34.505z"/>
	<path style="fill:#FFFFFF;" d="M45.789,20.165c0.4,1.578,0.625,3.233,0.625,4.943c0,11.063-9.006,20.063-20.068,20.063
		c-4.697,0-9.012-1.628-12.428-4.348l-1.989,1.268c3.887,3.316,8.918,5.327,14.417,5.327c12.302,0,22.312-10.01,22.312-22.313
		c0-0.815-0.055-1.609-0.143-2.399L45.789,20.165z"/>
	<path style="fill:#FFFFFF;" d="M51.819,19.002c-0.279-1.327-5.769-9.067-5.769-9.067s4.666-4.504,4.973-5.042
		c0.308-0.532,1.485-1.733-0.017-2.967c-1.508-1.238-2.587-0.438-3.118,0.039c-0.538,0.483-4.544,4.067-4.544,4.067
		s-8.13-5.921-9.468-6.025c-1.343-0.104-2.241,1.097-2.241,1.097l8.271,8.339l-4.052,4.779l-3.623-1.059l-2.001,1.233
		c0,0,3.974,1.733,4.758,2.73c0.789,0.997,1.825,4.315,1.825,4.315l1.908-1.004l-0.889-4.364l4.6-3.661l7.888,8.65
		C50.321,21.058,52.098,20.329,51.819,19.002"/>
	<path style="fill:#FFFFFF;" d="M33.251,18.443c-0.75-0.702-1.94-1.142-1.94-1.142c-9.882,9.6-22.212,20.174-24.894,20.514
		c-1.019,0.076-1.66-0.164-1.913-0.713c-0.291-0.619-0.636-1.024,0.093-1.76L2.515,30.7c-1.989,2.001-3.207,5.85-2.088,8.283
		c0.97,2.115,3.068,3.334,5.68,3.334c0.213,0,0.427-0.006,0.646-0.022c5.309-0.396,22.531-16.763,27.69-21.77
		C34.441,20.525,33.998,19.145,33.251,18.443"/>
</g>
</svg>
