<?xml version="1.0" encoding="iso-8859-1"?>
<!-- Generator: Adobe Illustrator 15.0.0, SVG Export Plug-In . SVG Version: 6.00 Build 0)  -->
<!DOCTYPE svg PUBLIC "-//W3C//DTD SVG 1.1//EN" "http://www.w3.org/Graphics/SVG/1.1/DTD/svg11.dtd">
<svg version="1.1" id="Layer_1" xmlns="http://www.w3.org/2000/svg" xmlns:xlink="http://www.w3.org/1999/xlink" x="0px" y="0px"
	 width="32.664px" height="57.682px" viewBox="0 0 32.664 57.682" style="enable-background:new 0 0 32.664 57.682;"
	 xml:space="preserve">
<path style="fill:#FFFFFF;" d="M28.468,0H4.198C1.875,0,0,1.882,0,4.202v49.28c0,2.318,1.875,4.198,4.198,4.198h24.271
	c2.317,0,4.196-1.88,4.196-4.198V4.202C32.664,1.882,30.786,0,28.468,0 M10.344,2.551h11.982c0.303,0,0.546,0.452,0.546,1.011
	c0,0.562-0.244,1.015-0.546,1.015H10.344c-0.304,0-0.546-0.453-0.546-1.015C9.798,3.003,10.04,2.551,10.344,2.551 M16.334,53.535
	c-1.478,0-2.68-1.203-2.68-2.685c0-1.478,1.202-2.677,2.68-2.677c1.475,0,2.675,1.199,2.675,2.677
	C19.009,52.332,17.809,53.535,16.334,53.535 M29.52,44.351H3.146V7.09H29.52V44.351z"/>
</svg>
