<?xml version="1.0" encoding="iso-8859-1"?>
<!-- Generator: Adobe Illustrator 15.0.0, SVG Export Plug-In . SVG Version: 6.00 Build 0)  -->
<!DOCTYPE svg PUBLIC "-//W3C//DTD SVG 1.1//EN" "http://www.w3.org/Graphics/SVG/1.1/DTD/svg11.dtd">
<svg version="1.1" id="Layer_1" xmlns="http://www.w3.org/2000/svg" xmlns:xlink="http://www.w3.org/1999/xlink" x="0px" y="0px"
	 width="62.098px" height="39.199px" viewBox="0 0 62.098 39.199" style="enable-background:new 0 0 62.098 39.199;"
	 xml:space="preserve">
<path style="fill:#FFFFFF;" d="M59.674,10.506H54.42c-0.159,0-0.313,0.018-0.462,0.046L47.153,0h-32.53L7.717,10.51
	c-0.013,0-0.025-0.004-0.038-0.004H2.426C1.087,10.506,0,11.592,0,12.93v1.618c0,1.339,1.087,2.425,2.426,2.425h1.309v2.122v8.789
	c0,2.646,1.849,4.89,4.42,5.718v3.174c0,1.34,1.086,2.425,2.425,2.425h1.617c1.339,0,2.426-1.085,2.426-2.425v-2.828h32.551v2.828
	c0,1.34,1.086,2.425,2.424,2.425h1.617c1.34,0,2.424-1.085,2.424-2.425v-3.25c2.456-0.881,4.198-3.072,4.198-5.642v-8.789v-2.122
	h1.838c1.339,0,2.424-1.086,2.424-2.425V12.93C62.098,11.592,61.013,10.506,59.674,10.506 M11.388,28.49
	c-1.786,0-3.232-1.448-3.232-3.233c0-1.784,1.447-3.233,3.232-3.233c1.787,0,3.234,1.449,3.234,3.233
	C14.622,27.042,13.174,28.49,11.388,28.49 M9.146,18.67v-2.021l8.708-13.256H43.88l8.546,13.256v2.021H9.146z M50.406,28.49
	c-1.784,0-3.232-1.448-3.232-3.233c0-1.784,1.449-3.233,3.232-3.233c1.784,0,3.232,1.449,3.232,3.233
	C53.638,27.042,52.19,28.49,50.406,28.49"/>
</svg>
