<?xml version="1.0" encoding="iso-8859-1"?>
<!-- Generator: Adobe Illustrator 15.0.0, SVG Export Plug-In . SVG Version: 6.00 Build 0)  -->
<!DOCTYPE svg PUBLIC "-//W3C//DTD SVG 1.1//EN" "http://www.w3.org/Graphics/SVG/1.1/DTD/svg11.dtd">
<svg version="1.1" id="Layer_1" xmlns="http://www.w3.org/2000/svg" xmlns:xlink="http://www.w3.org/1999/xlink" x="0px" y="0px"
	 width="62.402px" height="56.838px" viewBox="0 0 62.402 56.838" style="enable-background:new 0 0 62.402 56.838;"
	 xml:space="preserve">
<g>
	<path style="fill:#FFFFFF;" d="M54.794,12.835c-5.136-9.1-7.15-8.06-9.101-8.905c-1.947-0.845-9.101-2.925-9.101-2.925
		s0.384-0.386-0.462-0.938c-0.662,1.728-1.777,3.659-3.066,4.805l-0.579,3.072c1.586,8.837,1.756,16.128,2.052,24.692
		c-0.97,1.219-2.4,3.09-3.437,4.287c-1.155-1.179-2.518-2.98-3.729-4.285c0.484-8.594,0.863-15.95,2.188-24.694
		c-0.212-1.008-0.424-2.018-0.637-3.025C27.429,3.463,26.677,1.637,26.417,0c-0.044,0.02-0.101,0.038-0.133,0.06
		c-0.865,0.555-0.476,0.945-0.476,0.945s-7.15,2.08-9.1,2.925c-1.95,0.846-3.964-0.194-9.101,8.905
		c-5.136,9.099-7.734,11.634-7.604,15.533c0.131,3.9,7.671,14.561,9.556,17.354c0,0,0.455,0.521,1.04,0.391l0.521,0.586l3.118-1.95
		l-0.39-0.845c0,0,0.977-0.717-0.455-2.926c-1.431-2.211-5.199-13.325-5.199-13.325s4.552-8.255,7.409-9.555
		c0,0,1.234,9.49,1.365,13.454c0.131,3.967-3.38,17.096-2.404,19.631c0.977,2.534,2.339,2.08,2.339,2.08l-0.26,1.494
		c0,0,1.433,1.82,10.271,2.08h3.375h1.822h3.376c8.84-0.26,10.271-2.08,10.271-2.08l-0.261-1.494c0,0,1.363,0.454,2.34-2.08
		c0.976-2.535-2.535-15.664-2.404-19.631c0.13-3.964,1.364-13.454,1.364-13.454c2.859,1.3,7.41,9.555,7.41,9.555
		s-3.771,11.114-5.2,13.325c-1.431,2.209-0.455,2.926-0.455,2.926l-0.389,0.845l3.119,1.95l0.519-0.586
		c0.585,0.131,1.041-0.391,1.041-0.391c1.885-2.793,9.424-13.453,9.555-17.354C62.528,24.469,59.929,21.935,54.794,12.835z"/>
</g>
</svg>
