<?xml version="1.0" encoding="utf-8"?>
<!-- Generator: Adobe Illustrator 15.0.0, SVG Export Plug-In . SVG Version: 6.00 Build 0)  -->
<!DOCTYPE svg PUBLIC "-//W3C//DTD SVG 1.1//EN" "http://www.w3.org/Graphics/SVG/1.1/DTD/svg11.dtd">
<svg version="1.1" id="Layer_1" xmlns="http://www.w3.org/2000/svg" xmlns:xlink="http://www.w3.org/1999/xlink" x="0px" y="0px"
	 width="502px" height="96px" viewBox="63.523 -2.951 502 96" enable-background="new 63.523 -2.951 502 96" xml:space="preserve">
<g>
	<g>
		<g>
			<polygon fill="#FFCC00" points="368.278,68.151 370.761,65.667 378.477,73.386 370.761,81.102 368.278,78.621 373.513,73.386 			
				"/>
			<polygon fill="#FFCC00" points="375.862,68.151 378.344,65.667 386.063,73.386 378.344,81.102 375.862,78.621 381.095,73.386 			
				"/>
		</g>
	</g>
	<path fill="#FFED00" d="M435.898,16.125h101.825c9.455,0,17.188,8.671,17.188,19.268V54.66H445.283l10.867-8.567l-1.35-8.031
		l-12.09-2.213l-8.072-9.491L435.898,16.125z"/>
	<path fill="#3E3D40" d="M198.397,55.06h-5.736l-4.038-33.251l-8.783,29.036c-0.624,2.07-1.238,3.386-1.843,3.952
		c-0.606,0.564-1.416,0.849-2.431,0.849c-1.21,0-2.126-0.448-2.751-1.346c-0.429-0.624-0.898-1.775-1.405-3.455l-8.781-29.036
		l-4.041,33.251h-5.737l4.508-35.77c0.196-1.638,0.546-2.869,1.055-3.687c0.818-1.405,2.086-2.106,3.803-2.106
		c1.485,0,2.656,0.603,3.515,1.813c0.544,0.741,1.091,2.029,1.639,3.865l8.253,27.103l8.139-27.103
		c0.702-2.304,1.443-3.827,2.224-4.567c0.78-0.742,1.755-1.111,2.926-1.111c1.717,0,2.985,0.682,3.805,2.047
		c0.468,0.82,0.82,2.07,1.053,3.746L198.397,55.06z"/>
	<path fill="#3E3D40" d="M224.704,25.906c0,3.278-0.878,6.069-2.635,8.371c-1.873,2.459-4.487,4.04-7.845,4.743V55.06h-5.503V39.019
		c-3.396-0.703-5.99-2.235-7.786-4.596c-1.796-2.361-2.693-5.2-2.693-8.517V14.081h5.503v11.884c0,2.459,0.643,4.391,1.932,5.795
		c1.288,1.404,3.218,2.107,5.794,2.107s4.508-0.703,5.796-2.107c1.287-1.404,1.932-3.338,1.932-5.795V14.081h5.502L224.704,25.906
		L224.704,25.906z"/>
	<path fill="#3E3D40" d="M269.509,43.469c0,3.24-0.977,5.893-2.937,7.963c-2.313,2.419-5.758,3.628-10.334,3.628h-7.336v-5.151
		h7.055c2.117,0,3.717-0.255,4.82-0.761c2.155-1.016,3.229-3.007,3.229-5.972c0-2.068-0.685-3.708-2.06-4.917
		c-1.367-1.211-3.191-1.816-5.464-1.816H248.9v-5.151h5.533c2.106,0,3.923-0.526,5.436-1.58c1.511-1.054,2.263-2.556,2.263-4.508
		c0-1.796-0.604-3.297-1.814-4.507c-1.365-1.366-3.2-2.05-5.503-2.05c-2.185,0-4.02,0.684-5.503,2.05
		c-1.678,1.561-2.519,3.746-2.519,6.556V55.06h-5.442l0.058-27.924c0-4.06,1.219-7.347,3.659-9.865
		c2.439-2.517,5.533-3.775,9.279-3.775c4.215,0,7.553,1.229,10.012,3.687c2.184,2.187,3.278,4.82,3.278,7.904
		c0,2.146-0.41,3.902-1.23,5.27c-0.625,1.092-1.599,2.008-2.927,2.75c1.912,0.976,3.396,2.371,4.45,4.186
		C268.981,39.107,269.509,41.166,269.509,43.469z"/>
	<path fill="#3E3D40" d="M300.322,39.839c0,3.98-0.685,7.123-2.049,9.426c-1.172,1.952-2.908,3.551-5.211,4.801
		c-1.952,1.055-4.059,1.579-6.322,1.579s-4.371-0.527-6.323-1.579c-2.849-1.563-4.84-3.785-5.971-6.674
		c-0.821-2.068-1.23-4.586-1.23-7.553V14.081h5.502V40.19c0,2.342,0.333,4.273,0.997,5.795c1.287,3.004,3.629,4.508,7.024,4.508
		c2.654,0,4.664-0.919,6.03-2.752c1.366-1.834,2.048-4.351,2.048-7.551V14.081h5.504V39.839L300.322,39.839z"/>
	<path fill="#3E3D40" d="M329.611,44.464c0,2.108-0.509,3.981-1.524,5.621c-1.245,2.069-2.925,3.473-5.031,4.213
		c-1.445,0.506-3.418,0.76-5.913,0.76h-13.934v-5.148h13.405c1.993,0,3.572-0.255,4.741-0.761c1.837-0.818,2.752-2.206,2.752-4.158
		c0-1.521-0.497-2.839-1.493-3.95c-0.994-1.114-3.464-2.606-7.404-4.48c-2.499-1.17-4.274-2.068-5.328-2.693
		c-1.952-1.17-3.417-2.419-4.391-3.747c-1.328-1.834-1.99-3.825-1.99-5.972c0-2.185,0.526-4.059,1.581-5.62
		c1.209-1.794,2.907-3.043,5.092-3.745c1.482-0.469,3.258-0.703,5.328-0.703h12.294v5.151H315.15c-1.482,0-2.635,0.108-3.453,0.323
		c-0.82,0.214-1.523,0.829-2.107,1.844c-0.391,0.625-0.586,1.348-0.586,2.167c0,1.21,0.313,2.243,0.938,3.102
		c0.467,0.665,1.258,1.347,2.372,2.05c1.111,0.702,2.779,1.579,5.005,2.633c2.614,1.249,4.448,2.186,5.503,2.81
		c2.069,1.249,3.609,2.537,4.625,3.864C328.889,39.975,329.611,42.121,329.611,44.464z"/>
	<rect x="332.499" y="14.081" fill="#3E3D40" width="5.503" height="40.979"/>
	<path fill="#3E3D40" d="M372.621,49.675c0,1.755-0.176,3.042-0.527,3.861c-0.624,1.406-1.852,2.108-3.688,2.108
		c-1.173,0-2.166-0.263-2.985-0.79c-0.82-0.527-1.718-1.804-2.693-3.834l-14.344-29.564l-0.116,33.603h-5.503V20.051
		c0-1.95,0.216-3.375,0.644-4.273c0.705-1.522,2.087-2.282,4.157-2.282c1.484,0,2.693,0.526,3.632,1.581
		c0.701,0.779,1.581,2.263,2.633,4.448l13.173,27.457l0.116-32.9h5.503V49.675L372.621,49.675z"/>
	<path fill="#3E3D40" d="M401.62,55.06h-4.101c-6.673,0-12.021-2.186-16.04-6.556c-3.591-3.903-5.383-8.547-5.383-13.934
		c0-5.386,1.773-10.011,5.325-13.874c4.021-4.41,9.425-6.615,16.214-6.615h3.984v5.151h-3.454c-4.256,0-7.883,1.092-10.892,3.278
		c-3.003,2.187-4.817,5.114-5.441,8.783h19.787v5.15h-19.787c0.389,3.903,1.992,7.123,4.801,9.662
		c2.808,2.534,6.341,3.804,10.596,3.804h4.391V55.06L401.62,55.06z"/>
	<path fill="#3E3D40" d="M429.621,44.464c0,2.108-0.507,3.981-1.522,5.621c-1.248,2.069-2.928,3.473-5.034,4.213
		c-1.442,0.506-3.414,0.76-5.912,0.76h-13.935v-5.148h13.405c1.993,0,3.572-0.255,4.745-0.761c1.833-0.818,2.749-2.206,2.749-4.158
		c0-1.521-0.497-2.839-1.494-3.95c-0.994-1.114-3.464-2.606-7.403-4.48c-2.5-1.17-4.276-2.068-5.329-2.693
		c-1.951-1.17-3.414-2.419-4.39-3.747c-1.326-1.834-1.992-3.825-1.992-5.972c0-2.185,0.53-4.059,1.582-5.62
		c1.21-1.794,2.909-3.043,5.092-3.745c1.484-0.469,3.259-0.703,5.33-0.703h12.292v5.151h-12.643c-1.485,0-2.637,0.108-3.455,0.323
		s-1.524,0.829-2.106,1.844c-0.392,0.625-0.587,1.348-0.587,2.167c0,1.21,0.312,2.243,0.938,3.102
		c0.467,0.665,1.259,1.347,2.371,2.05c1.112,0.702,2.779,1.579,5.006,2.633c2.612,1.249,4.446,2.186,5.501,2.81
		c2.07,1.249,3.609,2.537,4.625,3.864C428.899,39.975,429.621,42.121,429.621,44.464z"/>
	<path fill="#3E3D40" d="M457.04,44.464c0,2.108-0.508,3.981-1.523,5.621c-1.249,2.069-2.928,3.473-5.036,4.213
		c-1.442,0.506-3.413,0.76-5.913,0.76h-13.932v-5.148h13.404c1.992,0,3.573-0.255,4.743-0.761c1.834-0.818,2.752-2.206,2.752-4.158
		c0-1.521-0.5-2.839-1.494-3.95c-0.996-1.114-3.464-2.606-7.404-4.48c-2.497-1.17-4.273-2.068-5.328-2.693
		c-1.951-1.17-3.414-2.419-4.39-3.747c-1.328-1.834-1.989-3.825-1.989-5.972c0-2.185,0.524-4.059,1.576-5.62
		c1.212-1.794,2.909-3.043,5.095-3.745c1.484-0.469,3.261-0.703,5.327-0.703h12.295v5.151h-12.646c-1.481,0-2.634,0.108-3.452,0.323
		s-1.523,0.829-2.106,1.844c-0.393,0.625-0.588,1.348-0.588,2.167c0,1.21,0.315,2.243,0.938,3.102
		c0.469,0.665,1.261,1.347,2.373,2.05c1.111,0.702,2.781,1.579,5.003,2.633c2.617,1.249,4.449,2.186,5.506,2.81
		c2.067,1.249,3.609,2.537,4.624,3.864C456.317,39.975,457.04,42.121,457.04,44.464z"/>
	<path d="M466.537,37.145c0,1.747,0.539,3.231,1.624,4.447c1.084,1.221,2.394,1.829,3.935,1.829s2.852-0.608,3.937-1.829
		c1.084-1.215,1.62-2.7,1.62-4.447c0-1.742-0.536-3.213-1.618-4.428c-1.071-1.208-2.389-1.817-3.94-1.817
		c-1.539,0-2.849,0.609-3.933,1.817C467.076,33.932,466.537,35.404,466.537,37.145L466.537,37.145z M463.286,37.182
		c0-1.251,0.225-2.436,0.674-3.564c0.455-1.126,1.102-2.142,1.958-3.042c0.837-0.885,1.783-1.554,2.833-2.011
		c1.047-0.458,2.163-0.688,3.345-0.688c1.185,0,2.313,0.23,3.379,0.688c1.061,0.457,2.012,1.126,2.837,2.011
		c0.844,0.876,1.487,1.891,1.929,3.024c0.444,1.139,0.669,2.329,0.669,3.582c0,1.272-0.225,2.481-0.669,3.621
		c-0.441,1.146-1.085,2.162-1.929,3.038c-0.823,0.882-1.776,1.553-2.837,2.01c-1.066,0.455-2.194,0.688-3.379,0.688
		c-1.182,0-2.298-0.233-3.345-0.688c-1.05-0.457-1.996-1.128-2.833-2.01c-0.856-0.89-1.503-1.904-1.958-3.044
		C463.51,39.656,463.286,38.454,463.286,37.182z"/>
	<path d="M482.666,46.208v-9.821c0-2.618,0.673-4.689,2.023-6.218c1.354-1.528,3.146-2.292,5.396-2.292
		c2.253,0,4.045,0.762,5.386,2.292c1.342,1.529,2.008,3.601,2.008,6.218v9.821h-3.094V35.805c0-1.422-0.401-2.581-1.2-3.468
		c-0.796-0.896-1.832-1.341-3.1-1.341c-1.248,0-2.286,0.445-3.094,1.341c-0.812,0.889-1.216,2.047-1.216,3.468v10.403H482.666z"/>
	<rect x="500.353" y="19.935" width="3.131" height="26.273"/>
	<path d="M506.571,46.208V28.209h3.126v17.999H506.571L506.571,46.208z M506.229,23.092c0-0.539,0.183-1.002,0.55-1.378
		c0.365-0.382,0.821-0.569,1.349-0.569c0.531,0,0.982,0.187,1.346,0.556c0.358,0.377,0.538,0.839,0.538,1.391
		c0,0.558-0.18,1.034-0.538,1.422c-0.363,0.381-0.814,0.576-1.346,0.576c-0.517,0-0.965-0.194-1.342-0.589
		C506.416,24.113,506.229,23.642,506.229,23.092z"/>
	<path d="M512.515,46.208v-9.821c0-2.618,0.673-4.689,2.025-6.218c1.354-1.528,3.147-2.292,5.397-2.292
		c2.248,0,4.044,0.762,5.386,2.292c1.339,1.529,2.008,3.601,2.008,6.218v9.821h-3.094V35.805c0-1.422-0.401-2.581-1.2-3.468
		c-0.796-0.896-1.832-1.341-3.1-1.341c-1.25,0-2.286,0.445-3.092,1.341c-0.813,0.889-1.22,2.047-1.22,3.468v10.403H512.515z"/>
	<path d="M546.725,38.247c-0.439,2.568-1.442,4.597-3.023,6.094c-1.576,1.49-3.49,2.234-5.754,2.234
		c-0.769,0-1.527-0.105-2.281-0.318c-0.751-0.213-1.461-0.532-2.127-0.946c-1.396-0.883-2.48-2.036-3.25-3.451
		c-0.771-1.422-1.152-2.982-1.152-4.679c0-1.252,0.224-2.436,0.666-3.563c0.443-1.127,1.087-2.142,1.929-3.043
		c0.839-0.896,1.797-1.573,2.869-2.042c1.065-0.463,2.194-0.694,3.383-0.694c1.761,0,3.342,0.48,4.731,1.44
		c1.388,0.958,2.516,2.36,3.383,4.196l-11.416,6.531l-1.315-2.435l8.471-4.893c-0.523-0.595-1.108-1.051-1.761-1.358
		c-0.65-0.308-1.357-0.458-2.127-0.458c-1.563,0-2.88,0.602-3.954,1.811c-1.073,1.203-1.604,2.692-1.604,4.464
		c0,1.767,0.538,3.25,1.618,4.466c1.07,1.208,2.387,1.816,3.94,1.816c1.477,0,2.715-0.507,3.716-1.516
		c1.002-1.008,1.626-2.392,1.873-4.152L546.725,38.247z"/>
	<path d="M253.219,80.941c-1.097,0-2.099-0.164-3.007-0.5c-0.909-0.328-1.69-0.837-2.345-1.515c-0.65-0.688-1.151-1.538-1.495-2.551
		c-0.347-1.013-0.521-2.176-0.521-3.494c0-1.25,0.174-2.367,0.525-3.355c0.352-0.987,0.853-1.833,1.502-2.533
		c0.631-0.68,1.41-1.202,2.333-1.572c0.919-0.366,1.932-0.549,3.024-0.549c0.522,0,1.02,0.037,1.5,0.111
		c0.479,0.081,0.938,0.182,1.375,0.312c0.343,0.104,0.731,0.25,1.158,0.436c0.43,0.18,0.775,0.339,1.037,0.472v2.487h-0.177
		c-0.256-0.229-0.523-0.446-0.795-0.651c-0.274-0.206-0.662-0.428-1.162-0.661c-0.415-0.209-0.892-0.38-1.435-0.519
		c-0.539-0.137-1.122-0.208-1.747-0.208c-1.492,0-2.695,0.563-3.615,1.687c-0.92,1.123-1.378,2.614-1.378,4.48
		c0,1.04,0.12,1.949,0.365,2.727c0.242,0.774,0.593,1.436,1.047,1.977c0.448,0.536,0.98,0.941,1.608,1.221
		c0.629,0.28,1.335,0.421,2.117,0.421c0.584,0,1.164-0.042,1.739-0.122c0.576-0.086,1.062-0.21,1.458-0.377v-4h-3.581v-1.813h5.618
		v6.762c-0.263,0.118-0.614,0.267-1.056,0.448c-0.441,0.18-0.851,0.321-1.235,0.426c-0.504,0.153-0.963,0.264-1.371,0.344
		C254.295,80.903,253.801,80.941,253.219,80.941z"/>
	<path d="M274.156,74.835c0,1.954-0.473,3.47-1.415,4.53c-0.944,1.065-2.201,1.598-3.768,1.598c-1.616,0-2.887-0.55-3.814-1.646
		c-0.926-1.104-1.389-2.595-1.389-4.481c0-1.94,0.477-3.45,1.432-4.525c0.952-1.074,2.209-1.614,3.771-1.614
		c1.565,0,2.824,0.54,3.768,1.612C273.684,71.376,274.156,72.888,274.156,74.835L274.156,74.835z M272.138,74.835
		c0-1.503-0.274-2.622-0.823-3.353c-0.547-0.73-1.329-1.096-2.34-1.096c-1.019,0-1.808,0.365-2.357,1.096
		c-0.55,0.73-0.828,1.847-0.828,3.353c0,1.455,0.276,2.56,0.828,3.311c0.551,0.754,1.339,1.132,2.357,1.132
		c1.005,0,1.787-0.37,2.337-1.107C271.862,77.432,272.138,76.318,272.138,74.835z"/>
	<path d="M298.983,72.909c0,1.417-0.289,2.69-0.86,3.827c-0.572,1.14-1.339,2.028-2.3,2.663c-0.785,0.495-1.581,0.825-2.39,0.992
		c-0.806,0.167-1.839,0.248-3.094,0.248h-3.566V65.152h3.525c1.457,0,2.599,0.111,3.426,0.325c0.832,0.22,1.535,0.518,2.118,0.901
		c1,0.657,1.771,1.534,2.322,2.625C298.709,70.097,298.983,71.401,298.983,72.909L298.983,72.909z M296.837,72.881
		c0-1.193-0.2-2.212-0.592-3.055c-0.395-0.842-0.98-1.503-1.759-1.97c-0.547-0.335-1.133-0.57-1.757-0.717
		c-0.625-0.147-1.399-0.22-2.33-0.22h-1.569v11.952h1.569c0.916,0,1.716-0.076,2.405-0.22c0.684-0.146,1.313-0.415,1.881-0.812
		c0.713-0.485,1.251-1.131,1.612-1.94C296.656,75.092,296.837,74.083,296.837,72.881z"/>
	<path d="M306.854,80.64h-1.956V69.023h1.956V80.64L306.854,80.64z M306.989,67.071h-2.227v-2.025h2.227V67.071z"/>
	<path d="M320.51,77.489v-6.376c-0.487-0.238-0.934-0.405-1.349-0.504c-0.413-0.102-0.823-0.152-1.234-0.152
		c-0.991,0-1.772,0.365-2.34,1.093c-0.567,0.727-0.853,1.767-0.853,3.129c0,1.288,0.217,2.271,0.65,2.943
		c0.435,0.671,1.137,1.009,2.105,1.009c0.509,0,1.029-0.099,1.565-0.303C319.596,78.13,320.077,77.846,320.51,77.489L320.51,77.489z
		 M313.932,82.501c0.13,0.057,0.327,0.131,0.582,0.225c0.259,0.092,0.551,0.18,0.874,0.266c0.362,0.09,0.696,0.161,1,0.22
		c0.307,0.053,0.637,0.083,0.999,0.083c0.604,0,1.114-0.079,1.533-0.238c0.422-0.162,0.75-0.384,0.985-0.668
		c0.222-0.283,0.379-0.615,0.469-0.987c0.086-0.375,0.135-0.803,0.135-1.281v-1.021c-0.527,0.46-1.045,0.796-1.55,1.016
		c-0.506,0.218-1.142,0.328-1.903,0.328c-1.324,0-2.379-0.495-3.164-1.478s-1.174-2.4-1.174-4.243c0-0.964,0.134-1.816,0.404-2.563
		c0.27-0.745,0.633-1.377,1.094-1.899c0.436-0.499,0.95-0.886,1.549-1.155c0.596-0.271,1.214-0.406,1.854-0.406
		c0.604,0,1.123,0.072,1.564,0.213c0.439,0.144,0.881,0.346,1.325,0.608l0.111-0.496h1.845v10.299c0,1.97-0.433,3.416-1.29,4.336
		c-0.863,0.922-2.176,1.384-3.943,1.384c-0.569,0-1.152-0.048-1.745-0.135c-0.593-0.089-1.144-0.213-1.657-0.366v-2.036h0.103
		V82.501z"/>
	<path d="M331.084,80.64h-1.958V69.023h1.958V80.64L331.084,80.64z M331.219,67.071h-2.228v-2.025h2.228V67.071z"/>
	<path d="M341.307,80.868c-1.069,0-1.901-0.303-2.496-0.908c-0.597-0.608-0.895-1.568-0.895-2.878v-6.438h-1.322v-1.622h1.322
		v-3.342h1.956v3.342h3.598v1.622h-3.598v5.522c0,0.59,0.013,1.043,0.03,1.361c0.021,0.321,0.1,0.617,0.238,0.896
		c0.118,0.242,0.31,0.428,0.574,0.548c0.261,0.12,0.621,0.183,1.072,0.183c0.314,0,0.624-0.049,0.92-0.141
		c0.301-0.097,0.519-0.173,0.648-0.233h0.114v1.755c-0.366,0.106-0.738,0.189-1.119,0.245
		C341.972,80.838,341.626,80.868,341.307,80.868z"/>
	<path d="M355.197,77.78V74.55c-0.464,0.043-1.05,0.099-1.763,0.17c-0.711,0.076-1.283,0.178-1.72,0.308
		c-0.522,0.161-0.952,0.406-1.288,0.737c-0.339,0.326-0.514,0.788-0.514,1.378c0,0.666,0.19,1.171,0.565,1.508
		c0.374,0.343,0.92,0.511,1.642,0.511c0.619,0,1.174-0.134,1.676-0.399C354.294,78.495,354.762,78.17,355.197,77.78L355.197,77.78z
		 M355.197,79.405c-0.157,0.116-0.372,0.28-0.639,0.495c-0.265,0.208-0.527,0.379-0.774,0.505c-0.35,0.18-0.682,0.32-1.003,0.415
		c-0.324,0.095-0.775,0.144-1.358,0.144c-0.478,0-0.934-0.088-1.364-0.271c-0.429-0.18-0.806-0.431-1.133-0.758
		c-0.312-0.318-0.561-0.714-0.749-1.185c-0.188-0.467-0.28-0.961-0.28-1.479c0-0.808,0.17-1.492,0.51-2.057
		c0.34-0.565,0.879-1.015,1.611-1.351c0.651-0.298,1.423-0.503,2.311-0.617c0.887-0.112,1.843-0.199,2.869-0.256v-0.372
		c0-0.458-0.071-0.828-0.208-1.11c-0.142-0.28-0.33-0.498-0.583-0.65c-0.247-0.161-0.555-0.263-0.913-0.316
		c-0.363-0.051-0.731-0.076-1.112-0.076c-0.449,0-0.982,0.064-1.589,0.199c-0.61,0.136-1.223,0.335-1.833,0.592h-0.113v-1.989
		c0.362-0.101,0.879-0.217,1.549-0.34c0.676-0.127,1.337-0.191,2-0.191c0.796,0,1.471,0.064,2.017,0.191
		c0.546,0.123,1.04,0.347,1.478,0.673c0.421,0.319,0.738,0.73,0.944,1.24c0.209,0.504,0.312,1.121,0.312,1.848v7.952h-1.947V79.405
		L355.197,79.405z"/>
	<rect x="363.725" y="64.45" width="1.956" height="16.189"/>
</g>
<g>
	<path fill="#FDE900" d="M111.073,4.661c16.992,0,30.789,13.82,30.789,30.834c0,17.047-13.796,30.838-30.789,30.838
		c-17.018,0-30.814-13.791-30.814-30.838C80.259,18.481,94.055,4.661,111.073,4.661L111.073,4.661z"/>
	<path fill="#1A171B" d="M106.047,32.271l-5.629,5.925c-1.857,1.944-5.548,1.889-7.33,0.501l6.206-8.497
		c-1.703-0.945-2.489-2.072-2.987-3.935c-0.417-1.544,0.056-2.883,0.264-4.378c0.234-1.729,0.392-4.798-0.264-6.53
		c-0.078-0.208-0.183-0.394-0.287-0.6h14.217l18.823,40.615c-2.538,1.414-5.577-0.104-6.675-1.758l-13.956-21.031
		C107.852,31.72,106.858,31.431,106.047,32.271L106.047,32.271z"/>
	<path fill="#1A171B" d="M107.226,33.161l4.45,6.504L99.658,56.237c-2.068-1.101-3.193-4.248-1.909-6.475L107.226,33.161z"/>
</g>
</svg>
