<?xml version="1.0" encoding="utf-8"?>
<!-- Generator: Adobe Illustrator 15.0.0, SVG Export Plug-In . SVG Version: 6.00 Build 0)  -->
<!DOCTYPE svg PUBLIC "-//W3C//DTD SVG 1.1//EN" "http://www.w3.org/Graphics/SVG/1.1/DTD/svg11.dtd">
<svg version="1.1" id="Layer_1" xmlns="http://www.w3.org/2000/svg" xmlns:xlink="http://www.w3.org/1999/xlink" x="0px" y="0px"
	 width="70.771px" height="66.029px" viewBox="0 0 70.771 66.029" enable-background="new 0 0 70.771 66.029" xml:space="preserve">
<g>
	<g>
		<path fill="#3E3D40" d="M31.449,25.325l-8.026,8.531c-2.648,2.815-7.877,2.746-10.423,0.75l8.835-12.3
			c-2.407-1.333-3.528-2.984-4.244-5.656c-0.604-2.255,0.058-4.185,0.359-6.354c0.344-2.475,0.563-6.917-0.375-9.407
			C17.461,0.586,17.318,0.295,17.19,0h20.233l26.784,58.695c-3.599,2.061-7.921-0.148-9.493-2.551l-19.86-30.362
			C34.032,24.525,32.598,24.103,31.449,25.325L31.449,25.325z"/>
		<path fill="#3E3D40" d="M33.135,26.589l6.328,9.392L22.348,59.949c-2.938-1.607-4.55-6.135-2.721-9.383L33.135,26.589
			L33.135,26.589z"/>
	</g>
</g>
</svg>
