<svg version="1.1" id="Layer_1" xmlns="http://www.w3.org/2000/svg" xmlns:xlink="http://www.w3.org/1999/xlink" x="0px" y="0px" width="111.578px" height="22.3px" viewBox="0 0 111.578 22.3" enable-background="new 0 0 111.578 22.3" xml:space="preserve">
     <g>
      <g id="yellow-tm">
       <path fill="#1A171B" d="M23.05,22.193V22.3h-0.494c0.097-0.442,0.353-0.787,0.776-1.017c0.326-0.186,0.503-0.397,0.529-0.637
    			c0.848-0.654,1.65-1.404,2.4-2.244c0.468-0.566,1.165-1.406,2.092-2.511c0.282-0.309,0.626-0.813,1.023-1.52
    			c0.212-0.213,0.459-0.54,0.741-0.981c-0.354-0.566-0.503-0.981-0.459-1.237c-0.238-0.283-0.591-1.088-1.059-2.431l0.388-0.142
    			c-0.396-1.122-0.706-2.536-0.908-4.225c-0.168-1.459-0.318-2.899-0.459-4.331c0.07-0.239,0.265-0.565,0.591-0.989
    			C28.31,0.009,28.406,0,28.494,0c0.31,0,0.557,0.177,0.741,0.53l0.071,0.106c0.026,0.044,0.062,0.105,0.105,0.177
    			c-0.026,0.441,0.026,1.829,0.142,4.153c0.141,3.006,0.652,5.295,1.544,6.868c1.059-1.22,2.18-3.059,3.38-5.524
    			c0.186-0.407,0.706-1.334,1.544-2.784c0.212-0.521,0.468-1.308,0.777-2.359c0.37-0.194,0.652-0.283,0.847-0.283
    			c0.371,0,0.556,0.266,0.556,0.805c0,0.194-0.212,0.715-0.626,1.591c-0.142,0.257-0.212,0.513-0.212,0.769
    			c-0.212,0.098-0.317,0.23-0.317,0.389c-0.054,0.239-0.133,0.416-0.247,0.53h-0.036c-0.238,0.522-1.041,2.061-2.427,4.614
    			c-0.326,0.495-0.829,1.22-1.509,2.183c-0.026,0.071-0.3,0.451-0.812,1.132c-0.282,0.371-0.282,0.707,0,0.98l-0.106,0.425
    			c-0.353,0.194-0.847,0.53-1.474,1.025c-0.662,0.68-1.605,1.768-2.851,3.271c-0.353,0.238-1.05,0.91-2.073,2.015
    			C24.709,21.451,23.888,21.981,23.05,22.193L23.05,22.193z">
       </path>
       <path fill="#1A171B" d="M40.593,19.091l-0.105,0.106c-0.115,0.07-0.159,0.194-0.142,0.354c-1.871,1.414-3.371,2.166-4.5,2.254
    			c-0.627,0.026-1.254-0.088-1.862-0.354c-0.512-0.283-0.865-0.654-1.051-1.122c-0.167-0.381-0.281-0.999-0.353-1.866
    			c0.724-3.711,2.479-6.61,5.269-8.705c0.097-0.026,0.371-0.071,0.812-0.142c0.38-0.07,0.688,0,0.936,0.213
    			c0.247,0.211,0.371,0.504,0.371,0.883c-0.054,0.301-0.089,0.593-0.106,0.875c-0.405,1.362-1.765,2.943-4.086,4.72
    			c-0.141,0.124-0.521,0.239-1.155,0.354c-0.38,0.071-0.557,0.283-0.529,0.637c-0.31,0.513-0.433,0.999-0.389,1.44
    			c0,0.195,0.097,0.548,0.282,1.061c0.397,0.566,1.041,0.849,1.933,0.849l0.142-0.105c0.379,0,0.891-0.133,1.553-0.389
    			c0.653-0.398,1.694-0.964,3.124-1.689c0.026,0.09,0.035,0.169,0.035,0.239C40.77,18.844,40.717,18.976,40.593,19.091
    			L40.593,19.091z M38.555,11.41L38.555,11.41c-0.071-0.07-0.15-0.141-0.247-0.203c-1.244,0.77-2.321,2.06-3.229,3.872
    			c0.114,0,0.246-0.045,0.379-0.142c0.592-0.539,1.174-1.079,1.765-1.617C37.901,12.586,38.343,11.959,38.555,11.41L38.555,11.41z">
       </path>
       <path fill="#1A171B" d="M46.682,1.688c-0.256,0.283-0.353,0.557-0.282,0.813c-0.326,0.397-0.6,1.035-0.812,1.9
    			c-0.229,0.964-0.459,1.627-0.662,1.971c-0.167,0.521-0.424,1.37-0.776,2.537c0.07,0.168,0.035,0.318-0.106,0.46
    			c-0.026,0.097-0.273,0.98-0.74,2.643c-0.301,1.007-0.495,1.892-0.565,2.643c-0.132,0.186-0.221,0.513-0.256,0.973
    			c-0.035,0.459-0.123,0.769-0.265,0.928c-0.238,1.458-0.309,2.387-0.212,2.784c-0.07,0.257-0.018,0.636,0.177,1.131
    			c0.229-0.026,0.494-0.158,0.768-0.389c0.379-0.309,0.609-0.485,0.706-0.53c0.256-0.142,0.608-0.186,1.059-0.142
    			c-0.424,0.777-0.953,1.45-1.588,2.007c-0.142,0-0.318,0.053-0.538,0.141c-0.229,0.098-0.389,0.143-0.477,0.143
    			c-0.142,0-0.31-0.054-0.494-0.177c-0.469-0.425-0.725-0.663-0.777-0.734c-0.186-0.336-0.282-0.848-0.282-1.556
    			c0-0.326,0.018-0.716,0.035-1.157c0.053-0.098,0.133-0.486,0.247-1.167c0.282-1.645,0.557-3.032,0.812-4.154
    			c0.494-2.298,1.104-4.72,1.827-7.257c0.186-0.68,0.468-1.432,0.848-2.254c0.44-1.033,0.68-1.572,0.705-1.626
    			c0.089-0.273,0.31-0.654,0.662-1.122c0.212-0.256,0.45-0.389,0.706-0.389c0.238,0,0.468,0.142,0.706,0.424
    			C47.177,0.901,47.035,1.29,46.682,1.688L46.682,1.688z">
       </path>
       <path fill="#1A171B" d="M50.936,1.688c-0.256,0.283-0.354,0.557-0.283,0.813c-0.326,0.397-0.6,1.035-0.803,1.9
    			c-0.238,0.964-0.459,1.627-0.671,1.971c-0.167,0.521-0.423,1.37-0.776,2.537c0.071,0.168,0.035,0.318-0.105,0.46
    			c-0.018,0.097-0.265,0.98-0.732,2.643c-0.31,1.007-0.494,1.892-0.565,2.643c-0.141,0.186-0.229,0.513-0.265,0.973
    			c-0.034,0.459-0.123,0.769-0.265,0.928c-0.238,1.458-0.309,2.387-0.212,2.784c-0.07,0.257-0.008,0.636,0.177,1.131
    			c0.229-0.026,0.494-0.158,0.776-0.389c0.371-0.309,0.609-0.485,0.698-0.53c0.265-0.142,0.608-0.186,1.059-0.142
    			c-0.424,0.777-0.954,1.45-1.579,2.007c-0.142,0-0.327,0.053-0.548,0.141c-0.221,0.098-0.379,0.143-0.477,0.143
    			c-0.142,0-0.309-0.054-0.494-0.177c-0.468-0.425-0.724-0.663-0.768-0.734c-0.194-0.336-0.282-0.848-0.282-1.556
    			c0-0.326,0.009-0.716,0.034-1.157c0.045-0.098,0.124-0.486,0.248-1.167c0.273-1.645,0.547-3.032,0.803-4.154
    			c0.494-2.298,1.104-4.72,1.827-7.257c0.193-0.68,0.476-1.432,0.847-2.254c0.45-1.033,0.68-1.572,0.706-1.626
    			c0.088-0.273,0.317-0.654,0.671-1.122c0.203-0.256,0.44-0.389,0.696-0.389c0.239,0,0.469,0.142,0.707,0.424
    			C51.43,0.901,51.288,1.29,50.936,1.688L50.936,1.688z">
       </path>
       <path fill="#1A171B" d="M56.389,17.403c-0.185,0.097-0.344,0.282-0.459,0.565c-0.168,0.397-0.272,0.618-0.317,0.663
    			c-0.282,0.38-0.794,0.91-1.544,1.591c-0.706,1.008-1.738,1.582-3.098,1.724c-0.371,0.026-0.75,0-1.121-0.07
    			c-0.917-0.442-1.5-1.317-1.765-2.608c0.071-0.751,0.273-1.555,0.6-2.43c0.212-0.513,0.512-1.282,0.918-2.289
    			c0.186-0.213,0.433-0.583,0.733-1.123c0.309-0.477,0.626-0.805,0.952-0.99c0.3-0.513,0.786-0.849,1.438-0.989
    			c0.238,0.053,0.627-0.187,1.165-0.698c-0.026-0.098,0.035-0.239,0.177-0.425c0.256-0.026,0.494-0.035,0.696-0.035
    			c0.354,0,0.636,0.035,0.848,0.106c0.962,0.681,1.447,1.82,1.447,3.411c0,0.406-0.035,0.822-0.089,1.255
    			C56.91,15.493,56.716,16.272,56.389,17.403L56.389,17.403z M55.789,12.365L55.789,12.365c-0.07-0.513-0.309-0.866-0.706-1.061
    			l-1.544,0.565l0.353,0.424c0.018,0.257,0.044,0.637,0.07,1.132c0,0.415-0.132,0.76-0.389,1.017
    			c-0.114,0.07-0.237,0.124-0.353,0.142c-0.326,0.026-0.538-0.362-0.635-1.158c-0.212,0.089-0.477,0.336-0.804,0.733
    			c-0.396,0.469-0.68,0.77-0.847,0.884c-0.653,1.406-1.006,2.228-1.06,2.466c-0.202,0.61-0.309,1.193-0.309,1.759
    			c0,0.283,0.018,0.565,0.07,0.849c0.159,0.23,0.513,0.372,1.051,0.425c2.674-0.778,4.447-2.917,5.313-6.417
    			C55.93,13.47,55.859,12.887,55.789,12.365L55.789,12.365z">
       </path>
       <path fill="#1A171B" d="M76.262,9.334c-0.167,0.282-0.353,0.627-0.564,1.024c-0.538,0.638-1.553,2.192-3.027,4.685
    			c-1.173,1.972-2.355,3.359-3.556,4.154c-0.273,0.098-0.547,0.142-0.804,0.142c-0.423,0-0.847-0.106-1.271-0.318
    			c-0.256-0.371-0.617-0.893-1.085-1.547c-0.026-0.282-0.159-0.893-0.389-1.829c-0.185-0.752-0.273-1.379-0.247-1.874
    			c-0.309,0.548-0.82,1.335-1.544,2.36c-0.124,0.379-0.38,0.874-0.776,1.484c-0.397,0.61-0.653,1.052-0.776,1.334
    			c-0.371,0.522-1.016,1.247-1.934,2.184h-1.015c-0.547,0-0.812-0.266-0.812-0.804c-0.026-1.459,0.105-3.253,0.388-5.392
    			c0.186-1.547,0.397-3.262,0.627-5.145c0.026-0.257,0.203-0.389,0.529-0.389c0.38,0,0.636,0.097,0.777,0.282
    			c0.256,0.354,0.388,0.743,0.388,1.167c0,0.257-0.07,0.654-0.194,1.193c-0.132,0.539-0.186,0.938-0.177,1.202
    			c0.01,0.256-0.088,0.654-0.3,1.193c-0.141,0.354-0.062,0.707,0.247,1.061c-0.282,0.044-0.424,0.088-0.424,0.142v0.105
    			c0,0.229-0.035,0.54-0.105,0.91c-0.088,0.522-0.149,0.84-0.177,0.955c-0.07,0.637-0.07,1.141,0,1.511
    			c0.38-0.229,0.769-0.68,1.165-1.334c0.441-0.751,0.785-1.237,1.016-1.449c0.564-1.167,1.765-3.191,3.591-6.055
    			c0.256-0.186,0.547-0.282,0.874-0.282c0.123,0,0.247,0.009,0.388,0.034c0.354,0.169,0.53,0.398,0.53,0.708
    			c0,0.089-0.026,0.273-0.089,0.539c-0.062,0.274-0.079,0.477-0.053,0.618c-0.114,0.194-0.194,0.504-0.229,0.954
    			c-0.035,0.443-0.097,0.752-0.194,0.911c0.07,1.458,0.124,2.245,0.142,2.36c0.168,0.919,0.556,1.564,1.165,1.944
    			c0.211,0.018,0.441-0.213,0.706-0.707c0.485-0.584,1.623-2.184,3.406-4.791c1.341-1.953,2.559-3.474,3.662-4.578h0.661
    			C76.694,8.467,76.518,8.909,76.262,9.334L76.262,9.334z">
       </path>
       <polygon fill-rule="evenodd" clip-rule="evenodd" fill="#1A171B" points="18.17,21.654 18.17,20.611 17.799,20.611 17.799,20.399 
    			18.797,20.399 18.797,20.611 18.426,20.611 18.426,21.654 		">
       </polygon>
       <polygon fill-rule="evenodd" clip-rule="evenodd" fill="#1A171B" points="18.955,21.654 18.955,20.399 19.335,20.399 
    			19.556,21.257 19.784,20.399 20.164,20.399 20.164,21.654 19.926,21.654 19.926,20.665 19.679,21.654 19.432,21.654 
    			19.185,20.665 19.185,21.654 		">
       </polygon>
       <g>
        <path fill="#1A171B" d="M86.645,21.936H85.33v-8.527l-2.574,5.802h-0.797l-2.555-5.802v8.527h-1.228v-9.896h1.792l2.469,5.51
    				l2.382-5.51h1.825V21.936z">
        </path>
        <path fill="#1A171B" d="M91.794,22.108c-1.181,0-2.098-0.334-2.75-1c-0.653-0.667-0.979-1.614-0.979-2.842
    				c0-1.209,0.315-2.172,0.948-2.888s1.46-1.073,2.481-1.073c0.46,0,0.867,0.066,1.222,0.199c0.354,0.133,0.663,0.341,0.929,0.625
    				c0.266,0.283,0.469,0.63,0.61,1.04s0.212,0.911,0.212,1.505v0.679h-5.136c0,0.863,0.217,1.524,0.65,1.98s1.033,0.685,1.799,0.685
    				c0.273,0,0.542-0.031,0.806-0.093c0.263-0.063,0.501-0.143,0.714-0.239c0.226-0.103,0.415-0.201,0.57-0.296
    				c0.155-0.096,0.283-0.186,0.385-0.27h0.073v1.362c-0.146,0.058-0.327,0.13-0.544,0.216c-0.217,0.087-0.412,0.154-0.584,0.203
    				c-0.244,0.066-0.464,0.117-0.66,0.152C92.344,22.09,92.095,22.108,91.794,22.108z M93.254,17.396
    				c-0.009-0.336-0.049-0.627-0.119-0.87c-0.071-0.243-0.173-0.449-0.306-0.618c-0.146-0.187-0.333-0.328-0.561-0.426
    				c-0.228-0.097-0.51-0.146-0.846-0.146c-0.332,0-0.614,0.05-0.847,0.149s-0.443,0.245-0.634,0.436
    				c-0.186,0.194-0.327,0.411-0.425,0.647c-0.097,0.237-0.159,0.513-0.186,0.827H93.254z">
        </path>
        <path fill="#1A171B" d="M101.395,21.936h-1.247v-0.758c-0.194,0.164-0.362,0.299-0.504,0.405
    				c-0.143,0.106-0.308,0.203-0.498,0.293c-0.177,0.083-0.36,0.149-0.551,0.195c-0.19,0.047-0.411,0.07-0.663,0.07
    				c-0.403,0-0.775-0.085-1.118-0.253c-0.344-0.168-0.634-0.414-0.873-0.737c-0.243-0.328-0.432-0.732-0.563-1.213
    				c-0.134-0.48-0.199-1.034-0.199-1.658c0-0.651,0.083-1.215,0.252-1.691c0.168-0.477,0.4-0.892,0.696-1.247
    				c0.271-0.323,0.597-0.576,0.979-0.76c0.382-0.185,0.783-0.276,1.204-0.276c0.371,0,0.694,0.041,0.969,0.122
    				c0.274,0.083,0.563,0.21,0.869,0.383v-3.217h1.247V21.936z M100.147,20.128v-4.28c-0.31-0.15-0.587-0.255-0.833-0.313
    				c-0.245-0.058-0.512-0.087-0.799-0.087c-0.643,0-1.145,0.241-1.507,0.722c-0.363,0.481-0.544,1.176-0.544,2.083
    				c0,0.873,0.14,1.541,0.418,2.004s0.726,0.695,1.34,0.695c0.328,0,0.657-0.074,0.989-0.223S99.855,20.38,100.147,20.128z">
        </path>
        <path fill="#1A171B" d="M104.465,13.27h-1.42v-1.297h1.42V13.27z M104.379,21.936h-1.247v-7.424h1.247V21.936z">
        </path>
        <path fill="#1A171B" d="M110.337,21.145c-0.102,0.075-0.237,0.181-0.408,0.315c-0.17,0.136-0.335,0.243-0.494,0.322
    				c-0.222,0.115-0.435,0.204-0.641,0.267c-0.205,0.062-0.494,0.093-0.865,0.093c-0.306,0-0.596-0.058-0.869-0.173
    				c-0.275-0.115-0.516-0.277-0.724-0.485c-0.199-0.204-0.358-0.455-0.478-0.754c-0.119-0.3-0.18-0.615-0.18-0.947
    				c0-0.514,0.108-0.952,0.325-1.313c0.217-0.361,0.56-0.648,1.028-0.861c0.416-0.19,0.907-0.321,1.474-0.396
    				c0.566-0.073,1.177-0.127,1.831-0.163v-0.239c0-0.292-0.044-0.528-0.133-0.707c-0.089-0.18-0.212-0.318-0.371-0.416
    				c-0.159-0.102-0.354-0.169-0.584-0.202c-0.23-0.033-0.467-0.051-0.71-0.051c-0.288,0-0.626,0.044-1.016,0.131
    				c-0.389,0.086-0.778,0.212-1.168,0.375h-0.072v-1.27c0.229-0.066,0.56-0.14,0.988-0.219c0.429-0.08,0.854-0.12,1.274-0.12
    				c0.508,0,0.938,0.04,1.287,0.12c0.35,0.079,0.664,0.224,0.942,0.432c0.27,0.204,0.471,0.468,0.604,0.791s0.199,0.718,0.199,1.183
    				v5.078h-1.241V21.145z M110.337,20.107v-2.061c-0.296,0.027-0.671,0.064-1.124,0.11c-0.454,0.046-0.82,0.111-1.099,0.196
    				c-0.332,0.102-0.606,0.258-0.822,0.469c-0.218,0.21-0.326,0.504-0.326,0.88c0,0.426,0.12,0.747,0.359,0.964
    				c0.238,0.217,0.588,0.325,1.048,0.325c0.394,0,0.75-0.085,1.068-0.256C109.76,20.565,110.059,20.356,110.337,20.107z">
        </path>
       </g>
      </g>
      <path fill-rule="evenodd" clip-rule="evenodd" fill="#272423" d="M10.969,0.044c6.054,0,10.969,4.923,10.969,10.986
    		s-4.915,10.986-10.969,10.986S0,17.094,0,11.03S4.915,0.044,10.969,0.044L10.969,0.044z">
      </path>
      <path fill-rule="evenodd" clip-rule="evenodd" fill="#FDE900" d="M10.969,0.637c5.728,0,10.378,4.658,10.378,10.394
    		c0,5.746-4.65,10.395-10.378,10.395c-5.736,0-10.387-4.648-10.387-10.395C0.582,5.295,5.232,0.637,10.969,0.637L10.969,0.637z">
      </path>
      <path fill-rule="evenodd" clip-rule="evenodd" fill="#1A171B" d="M9.274,9.943L7.377,11.94c-0.626,0.655-1.87,0.637-2.471,0.169
    		l2.092-2.864C6.424,8.927,6.159,8.547,5.991,7.919C5.851,7.398,6.01,6.947,6.08,6.443C6.159,5.86,6.212,4.826,5.991,4.242
    		C5.965,4.172,5.93,4.109,5.895,4.04h4.792l6.345,13.69c-0.855,0.477-1.88-0.035-2.25-0.593l-4.704-7.089
    		C9.883,9.758,9.548,9.66,9.274,9.943L9.274,9.943z">
      </path>
      <path fill-rule="evenodd" clip-rule="evenodd" fill="#1A171B" d="M9.672,10.243l1.5,2.192l-4.051,5.586
    		c-0.697-0.371-1.076-1.432-0.644-2.183L9.672,10.243z">
      </path>
     </g>
    </svg>